<svg width="608" height="512" viewBox="0 0 608 512" fill="none" xmlns="http://www.w3.org/2000/svg">
<g filter="url(#filter0_i)">
<path d="M264.972 186V172.14H266.448V175.56H273.432C274.02 175.56 274.53 175.776 274.962 176.208C275.394 176.628 275.61 177.138 275.61 177.738V186H274.134V177.738C274.134 177.546 274.062 177.384 273.918 177.252C273.786 177.108 273.624 177.036 273.432 177.036H267.168C266.976 177.036 266.808 177.108 266.664 177.252C266.52 177.384 266.448 177.546 266.448 177.738V186H264.972ZM279.225 186C278.625 186 278.109 185.79 277.677 185.37C277.257 184.938 277.047 184.422 277.047 183.822V180.042H286.191V177.738C286.191 177.546 286.119 177.384 285.975 177.252C285.843 177.108 285.681 177.036 285.489 177.036H277.047V175.56H285.489C286.101 175.56 286.617 175.776 287.037 176.208C287.469 176.628 287.685 177.138 287.685 177.738V186H279.225ZM279.225 184.524H286.191V181.518H278.523V183.822C278.523 184.014 278.589 184.182 278.721 184.326C278.865 184.458 279.033 184.524 279.225 184.524ZM289.23 186V175.56H303.018C303.63 175.56 304.146 175.776 304.566 176.208C304.986 176.628 305.196 177.138 305.196 177.738V186H303.738V177.738C303.738 177.546 303.666 177.384 303.522 177.252C303.378 177.108 303.21 177.036 303.018 177.036H298.68C298.488 177.036 298.32 177.108 298.176 177.252C298.044 177.384 297.978 177.546 297.978 177.738V186H296.484V177.738C296.484 177.546 296.412 177.384 296.268 177.252C296.136 177.108 295.974 177.036 295.782 177.036H291.426C291.234 177.036 291.066 177.108 290.922 177.252C290.79 177.384 290.724 177.546 290.724 177.738V186H289.23ZM306.826 186V172.14H308.302V175.56H315.286C315.886 175.56 316.396 175.776 316.816 176.208C317.248 176.628 317.464 177.138 317.464 177.738V183.822C317.464 184.422 317.248 184.938 316.816 185.37C316.396 185.79 315.886 186 315.286 186H306.826ZM309.022 184.524H315.286C315.478 184.524 315.64 184.458 315.772 184.326C315.916 184.182 315.988 184.014 315.988 183.822V177.738C315.988 177.546 315.916 177.384 315.772 177.252C315.64 177.108 315.478 177.036 315.286 177.036H309.022C308.83 177.036 308.662 177.108 308.518 177.252C308.374 177.384 308.302 177.546 308.302 177.738V183.822C308.302 184.014 308.374 184.182 308.518 184.326C308.662 184.458 308.83 184.524 309.022 184.524ZM320.991 186C320.391 186 319.875 185.79 319.443 185.37C319.023 184.938 318.813 184.422 318.813 183.822V175.56H320.289V183.822C320.289 184.014 320.355 184.182 320.487 184.326C320.631 184.458 320.799 184.524 320.991 184.524H327.255C327.447 184.524 327.615 184.458 327.759 184.326C327.903 184.182 327.975 184.014 327.975 183.822V175.56H329.451V183.822C329.451 184.422 329.235 184.938 328.803 185.37C328.383 185.79 327.867 186 327.255 186H320.991ZM331.311 186V177.738C331.311 177.138 331.521 176.628 331.941 176.208C332.373 175.776 332.889 175.56 333.489 175.56H339.357V177.036H333.489C333.297 177.036 333.129 177.108 332.985 177.252C332.853 177.384 332.787 177.546 332.787 177.738V186H331.311ZM342.25 190.122V188.628H348.766C348.958 188.628 349.12 188.556 349.252 188.412C349.396 188.28 349.468 188.118 349.468 187.926V186H342.502C341.902 186 341.386 185.79 340.954 185.37C340.534 184.938 340.324 184.422 340.324 183.822V177.738C340.324 177.138 340.534 176.628 340.954 176.208C341.386 175.776 341.902 175.56 342.502 175.56H348.766C349.378 175.56 349.894 175.776 350.314 176.208C350.734 176.628 350.944 177.138 350.944 177.738V187.926C350.944 188.538 350.734 189.054 350.314 189.474C349.894 189.906 349.378 190.122 348.766 190.122H342.25ZM342.502 184.524H348.766C348.958 184.524 349.12 184.458 349.252 184.326C349.396 184.182 349.468 184.014 349.468 183.822V177.738C349.468 177.546 349.396 177.384 349.252 177.252C349.12 177.108 348.958 177.036 348.766 177.036H342.502C342.31 177.036 342.142 177.108 341.998 177.252C341.866 177.384 341.8 177.546 341.8 177.738V183.822C341.8 184.014 341.866 184.182 341.998 184.326C342.142 184.458 342.31 184.524 342.502 184.524ZM354.548 186C353.948 186 353.432 185.79 353 185.37C352.58 184.938 352.37 184.422 352.37 183.822V175.56H353.846V183.822C353.846 184.014 353.912 184.182 354.044 184.326C354.188 184.458 354.356 184.524 354.548 184.524H360.812C361.004 184.524 361.172 184.458 361.316 184.326C361.46 184.182 361.532 184.014 361.532 183.822V175.56H363.008V183.822C363.008 184.422 362.792 184.938 362.36 185.37C361.94 185.79 361.424 186 360.812 186H354.548ZM366.764 186C366.164 186 365.648 185.79 365.216 185.37C364.796 184.938 364.586 184.422 364.586 183.822V177.738C364.586 177.138 364.796 176.628 365.216 176.208C365.648 175.776 366.164 175.56 366.764 175.56H373.028C373.64 175.56 374.156 175.776 374.576 176.208C375.008 176.628 375.224 177.138 375.224 177.738V181.518H366.062V183.822C366.062 184.014 366.128 184.182 366.26 184.326C366.404 184.458 366.572 184.524 366.764 184.524H375.224V186H366.764ZM366.062 180.042H373.73V177.738C373.73 177.546 373.658 177.384 373.514 177.252C373.382 177.108 373.22 177.036 373.028 177.036H366.764C366.572 177.036 366.404 177.108 366.26 177.252C366.128 177.384 366.062 177.546 366.062 177.738V180.042ZM376.979 186V177.738C376.979 177.138 377.189 176.628 377.609 176.208C378.041 175.776 378.557 175.56 379.157 175.56H385.025V177.036H379.157C378.965 177.036 378.797 177.108 378.653 177.252C378.521 177.384 378.455 177.546 378.455 177.738V186H376.979ZM386.19 186V175.56H387.666V186H386.19ZM386.19 173.616V172.14H387.666V173.616H386.19ZM391.479 186C390.879 186 390.363 185.79 389.931 185.37C389.511 184.938 389.301 184.422 389.301 183.822V180.042H398.445V177.738C398.445 177.546 398.373 177.384 398.229 177.252C398.097 177.108 397.935 177.036 397.743 177.036H389.301V175.56H397.743C398.355 175.56 398.871 175.776 399.291 176.208C399.723 176.628 399.939 177.138 399.939 177.738V186H391.479ZM391.479 184.524H398.445V181.518H390.777V183.822C390.777 184.014 390.843 184.182 390.975 184.326C391.119 184.458 391.287 184.524 391.479 184.524Z" fill="white"/>
</g>
<path d="M264.972 186H264.472V186.5H264.972V186ZM264.972 172.14V171.64H264.472V172.14H264.972ZM266.448 172.14H266.948V171.64H266.448V172.14ZM266.448 175.56H265.948V176.06H266.448V175.56ZM274.962 176.208L274.608 176.562L274.613 176.566L274.962 176.208ZM275.61 186V186.5H276.11V186H275.61ZM274.134 186H273.634V186.5H274.134V186ZM273.918 177.252L273.549 177.59L273.564 177.606L273.58 177.621L273.918 177.252ZM266.664 177.252L267.002 177.621L267.01 177.613L267.018 177.606L266.664 177.252ZM266.448 186V186.5H266.948V186H266.448ZM265.472 186V172.14H264.472V186H265.472ZM264.972 172.64H266.448V171.64H264.972V172.64ZM265.948 172.14V175.56H266.948V172.14H265.948ZM266.448 176.06H273.432V175.06H266.448V176.06ZM273.432 176.06C273.882 176.06 274.266 176.219 274.608 176.562L275.316 175.854C274.794 175.333 274.158 175.06 273.432 175.06V176.06ZM274.613 176.566C274.949 176.893 275.11 177.274 275.11 177.738H276.11C276.11 177.002 275.839 176.363 275.311 175.85L274.613 176.566ZM275.11 177.738V186H276.11V177.738H275.11ZM275.61 185.5H274.134V186.5H275.61V185.5ZM274.634 186V177.738H273.634V186H274.634ZM274.634 177.738C274.634 177.403 274.501 177.108 274.256 176.883L273.58 177.621C273.623 177.66 273.634 177.689 273.634 177.738H274.634ZM274.287 176.914C274.062 176.669 273.767 176.536 273.432 176.536V177.536C273.481 177.536 273.51 177.547 273.549 177.59L274.287 176.914ZM273.432 176.536H267.168V177.536H273.432V176.536ZM267.168 176.536C266.835 176.536 266.542 176.667 266.31 176.898L267.018 177.606C267.074 177.549 267.117 177.536 267.168 177.536V176.536ZM266.326 176.883C266.081 177.108 265.948 177.403 265.948 177.738H266.948C266.948 177.689 266.959 177.66 267.002 177.621L266.326 176.883ZM265.948 177.738V186H266.948V177.738H265.948ZM266.448 185.5H264.972V186.5H266.448V185.5ZM277.677 185.37L277.319 185.719L277.329 185.728L277.677 185.37ZM277.047 180.042V179.542H276.547V180.042H277.047ZM286.191 180.042V180.542H286.691V180.042H286.191ZM285.975 177.252L285.607 177.59L285.621 177.606L285.637 177.621L285.975 177.252ZM277.047 177.036H276.547V177.536H277.047V177.036ZM277.047 175.56V175.06H276.547V175.56H277.047ZM287.037 176.208L286.679 176.557L286.689 176.566L287.037 176.208ZM287.685 186V186.5H288.185V186H287.685ZM286.191 184.524V185.024H286.691V184.524H286.191ZM286.191 181.518H286.691V181.018H286.191V181.518ZM278.523 181.518V181.018H278.023V181.518H278.523ZM278.721 184.326L278.353 184.664L278.367 184.68L278.383 184.695L278.721 184.326ZM279.225 185.5C278.756 185.5 278.365 185.341 278.026 185.012L277.329 185.728C277.854 186.239 278.495 186.5 279.225 186.5V185.5ZM278.036 185.021C277.706 184.682 277.547 184.291 277.547 183.822H276.547C276.547 184.553 276.809 185.194 277.319 185.719L278.036 185.021ZM277.547 183.822V180.042H276.547V183.822H277.547ZM277.047 180.542H286.191V179.542H277.047V180.542ZM286.691 180.042V177.738H285.691V180.042H286.691ZM286.691 177.738C286.691 177.403 286.558 177.108 286.313 176.883L285.637 177.621C285.68 177.66 285.691 177.689 285.691 177.738H286.691ZM286.344 176.914C286.119 176.669 285.824 176.536 285.489 176.536V177.536C285.538 177.536 285.568 177.547 285.607 177.59L286.344 176.914ZM285.489 176.536H277.047V177.536H285.489V176.536ZM277.547 177.036V175.56H276.547V177.036H277.547ZM277.047 176.06H285.489V175.06H277.047V176.06ZM285.489 176.06C285.969 176.06 286.355 176.223 286.679 176.557L287.396 175.859C286.88 175.329 286.234 175.06 285.489 175.06V176.06ZM286.689 176.566C287.024 176.893 287.185 177.274 287.185 177.738H288.185C288.185 177.002 287.914 176.363 287.386 175.85L286.689 176.566ZM287.185 177.738V186H288.185V177.738H287.185ZM287.685 185.5H279.225V186.5H287.685V185.5ZM279.225 185.024H286.191V184.024H279.225V185.024ZM286.691 184.524V181.518H285.691V184.524H286.691ZM286.191 181.018H278.523V182.018H286.191V181.018ZM278.023 181.518V183.822H279.023V181.518H278.023ZM278.023 183.822C278.023 184.141 278.138 184.429 278.353 184.664L279.09 183.988C279.041 183.935 279.023 183.887 279.023 183.822H278.023ZM278.383 184.695C278.618 184.909 278.906 185.024 279.225 185.024V184.024C279.161 184.024 279.113 184.007 279.059 183.957L278.383 184.695ZM289.23 186H288.73V186.5H289.23V186ZM289.23 175.56V175.06H288.73V175.56H289.23ZM304.566 176.208L304.207 176.557L304.212 176.562L304.566 176.208ZM305.196 186V186.5H305.696V186H305.196ZM303.738 186H303.238V186.5H303.738V186ZM303.522 177.252L303.168 177.606L303.176 177.613L303.184 177.621L303.522 177.252ZM298.176 177.252L297.822 176.898L298.176 177.252ZM297.978 186V186.5H298.478V186H297.978ZM296.484 186H295.984V186.5H296.484V186ZM296.268 177.252L295.899 177.59L295.914 177.606L295.93 177.621L296.268 177.252ZM290.922 177.252L290.568 176.898H290.568L290.922 177.252ZM290.724 186V186.5H291.224V186H290.724ZM289.73 186V175.56H288.73V186H289.73ZM289.23 176.06H303.018V175.06H289.23V176.06ZM303.018 176.06C303.497 176.06 303.883 176.223 304.207 176.557L304.924 175.859C304.409 175.329 303.762 175.06 303.018 175.06V176.06ZM304.212 176.562C304.537 176.887 304.696 177.269 304.696 177.738H305.696C305.696 177.007 305.434 176.369 304.919 175.854L304.212 176.562ZM304.696 177.738V186H305.696V177.738H304.696ZM305.196 185.5H303.738V186.5H305.196V185.5ZM304.238 186V177.738H303.238V186H304.238ZM304.238 177.738C304.238 177.403 304.105 177.108 303.86 176.883L303.184 177.621C303.227 177.66 303.238 177.689 303.238 177.738H304.238ZM303.875 176.898C303.644 176.667 303.351 176.536 303.018 176.536V177.536C303.069 177.536 303.112 177.549 303.168 177.606L303.875 176.898ZM303.018 176.536H298.68V177.536H303.018V176.536ZM298.68 176.536C298.347 176.536 298.054 176.667 297.822 176.898L298.529 177.606C298.586 177.549 298.629 177.536 298.68 177.536V176.536ZM297.822 176.898C297.594 177.127 297.478 177.418 297.478 177.738H298.478C298.478 177.674 298.494 177.641 298.529 177.606L297.822 176.898ZM297.478 177.738V186H298.478V177.738H297.478ZM297.978 185.5H296.484V186.5H297.978V185.5ZM296.984 186V177.738H295.984V186H296.984ZM296.984 177.738C296.984 177.403 296.851 177.108 296.606 176.883L295.93 177.621C295.973 177.66 295.984 177.689 295.984 177.738H296.984ZM296.636 176.914C296.412 176.669 296.117 176.536 295.782 176.536V177.536C295.831 177.536 295.86 177.547 295.899 177.59L296.636 176.914ZM295.782 176.536H291.426V177.536H295.782V176.536ZM291.426 176.536C291.093 176.536 290.8 176.667 290.568 176.898L291.275 177.606C291.332 177.549 291.375 177.536 291.426 177.536V176.536ZM290.568 176.898C290.34 177.127 290.224 177.418 290.224 177.738H291.224C291.224 177.674 291.24 177.641 291.275 177.606L290.568 176.898ZM290.224 177.738V186H291.224V177.738H290.224ZM290.724 185.5H289.23V186.5H290.724V185.5ZM306.826 186H306.326V186.5H306.826V186ZM306.826 172.14V171.64H306.326V172.14H306.826ZM308.302 172.14H308.802V171.64H308.302V172.14ZM308.302 175.56H307.802V176.06H308.302V175.56ZM316.816 176.208L316.457 176.557L316.467 176.566L316.816 176.208ZM316.816 185.37L317.169 185.724L316.816 185.37ZM315.772 184.326L315.418 183.972V183.972L315.772 184.326ZM315.772 177.252L315.403 177.59L315.418 177.606L315.434 177.621L315.772 177.252ZM308.518 177.252L308.855 177.621L308.863 177.613L308.871 177.606L308.518 177.252ZM308.518 184.326L308.164 184.68L308.172 184.687L308.18 184.695L308.518 184.326ZM307.326 186V172.14H306.326V186H307.326ZM306.826 172.64H308.302V171.64H306.826V172.64ZM307.802 172.14V175.56H308.802V172.14H307.802ZM308.302 176.06H315.286V175.06H308.302V176.06ZM315.286 176.06C315.75 176.06 316.131 176.221 316.457 176.557L317.174 175.859C316.66 175.331 316.021 175.06 315.286 175.06V176.06ZM316.467 176.566C316.803 176.893 316.964 177.274 316.964 177.738H317.964C317.964 177.002 317.692 176.363 317.164 175.85L316.467 176.566ZM316.964 177.738V183.822H317.964V177.738H316.964ZM316.964 183.822C316.964 184.287 316.802 184.676 316.462 185.016L317.169 185.724C317.693 185.2 317.964 184.557 317.964 183.822H316.964ZM316.462 185.016C316.137 185.342 315.754 185.5 315.286 185.5V186.5C316.017 186.5 316.654 186.238 317.169 185.724L316.462 185.016ZM315.286 185.5H306.826V186.5H315.286V185.5ZM309.022 185.024H315.286V184.024H309.022V185.024ZM315.286 185.024C315.606 185.024 315.896 184.908 316.125 184.68L315.418 183.972C315.383 184.008 315.349 184.024 315.286 184.024V185.024ZM316.125 184.68C316.357 184.448 316.488 184.155 316.488 183.822H315.488C315.488 183.873 315.475 183.916 315.418 183.972L316.125 184.68ZM316.488 183.822V177.738H315.488V183.822H316.488ZM316.488 177.738C316.488 177.403 316.355 177.108 316.109 176.883L315.434 177.621C315.476 177.66 315.488 177.689 315.488 177.738H316.488ZM316.14 176.914C315.915 176.669 315.62 176.536 315.286 176.536V177.536C315.335 177.536 315.364 177.547 315.403 177.59L316.14 176.914ZM315.286 176.536H309.022V177.536H315.286V176.536ZM309.022 176.536C308.688 176.536 308.395 176.667 308.164 176.898L308.871 177.606C308.928 177.549 308.971 177.536 309.022 177.536V176.536ZM308.18 176.883C307.934 177.108 307.802 177.403 307.802 177.738H308.802C308.802 177.689 308.813 177.66 308.855 177.621L308.18 176.883ZM307.802 177.738V183.822H308.802V177.738H307.802ZM307.802 183.822C307.802 184.155 307.933 184.448 308.164 184.68L308.871 183.972C308.815 183.916 308.802 183.873 308.802 183.822H307.802ZM308.18 184.695C308.414 184.909 308.702 185.024 309.022 185.024V184.024C308.957 184.024 308.909 184.007 308.855 183.957L308.18 184.695ZM319.443 185.37L319.085 185.719L319.095 185.728L319.443 185.37ZM318.813 175.56V175.06H318.313V175.56H318.813ZM320.289 175.56H320.789V175.06H320.289V175.56ZM320.487 184.326L320.119 184.664L320.133 184.68L320.15 184.695L320.487 184.326ZM327.759 184.326L328.097 184.695L328.105 184.687L328.113 184.68L327.759 184.326ZM327.975 175.56V175.06H327.475V175.56H327.975ZM329.451 175.56H329.951V175.06H329.451V175.56ZM328.803 185.37L329.157 185.724L328.803 185.37ZM320.991 185.5C320.522 185.5 320.131 185.341 319.792 185.012L319.095 185.728C319.62 186.239 320.261 186.5 320.991 186.5V185.5ZM319.802 185.021C319.472 184.682 319.313 184.291 319.313 183.822H318.313C318.313 184.553 318.575 185.194 319.085 185.719L319.802 185.021ZM319.313 183.822V175.56H318.313V183.822H319.313ZM318.813 176.06H320.289V175.06H318.813V176.06ZM319.789 175.56V183.822H320.789V175.56H319.789ZM319.789 183.822C319.789 184.141 319.904 184.429 320.119 184.664L320.856 183.988C320.807 183.935 320.789 183.887 320.789 183.822H319.789ZM320.15 184.695C320.384 184.909 320.672 185.024 320.991 185.024V184.024C320.927 184.024 320.879 184.007 320.825 183.957L320.15 184.695ZM320.991 185.024H327.255V184.024H320.991V185.024ZM327.255 185.024C327.575 185.024 327.863 184.909 328.097 184.695L327.422 183.957C327.368 184.007 327.32 184.024 327.255 184.024V185.024ZM328.113 184.68C328.344 184.448 328.475 184.155 328.475 183.822H327.475C327.475 183.873 327.462 183.916 327.406 183.972L328.113 184.68ZM328.475 183.822V175.56H327.475V183.822H328.475ZM327.975 176.06H329.451V175.06H327.975V176.06ZM328.951 175.56V183.822H329.951V175.56H328.951ZM328.951 183.822C328.951 184.287 328.79 184.676 328.45 185.016L329.157 185.724C329.681 185.2 329.951 184.557 329.951 183.822H328.951ZM328.45 185.016C328.127 185.34 327.739 185.5 327.255 185.5V186.5C327.995 186.5 328.64 186.24 329.157 185.724L328.45 185.016ZM327.255 185.5H320.991V186.5H327.255V185.5ZM331.311 186H330.811V186.5H331.311V186ZM331.941 176.208L331.587 175.854V175.854L331.941 176.208ZM339.357 175.56H339.857V175.06H339.357V175.56ZM339.357 177.036V177.536H339.857V177.036H339.357ZM332.787 186V186.5H333.287V186H332.787ZM331.811 186V177.738H330.811V186H331.811ZM331.811 177.738C331.811 177.269 331.969 176.887 332.295 176.562L331.587 175.854C331.073 176.369 330.811 177.007 330.811 177.738H331.811ZM332.295 176.562C332.635 176.221 333.024 176.06 333.489 176.06V175.06C332.754 175.06 332.111 175.331 331.587 175.854L332.295 176.562ZM333.489 176.06H339.357V175.06H333.489V176.06ZM338.857 175.56V177.036H339.857V175.56H338.857ZM339.357 176.536H333.489V177.536H339.357V176.536ZM333.489 176.536C333.156 176.536 332.863 176.667 332.631 176.898L333.339 177.606C333.395 177.549 333.438 177.536 333.489 177.536V176.536ZM332.631 176.898C332.403 177.127 332.287 177.418 332.287 177.738H333.287C333.287 177.674 333.303 177.641 333.339 177.606L332.631 176.898ZM332.287 177.738V186H333.287V177.738H332.287ZM332.787 185.5H331.311V186.5H332.787V185.5ZM342.25 190.122H341.75V190.622H342.25V190.122ZM342.25 188.628V188.128H341.75V188.628H342.25ZM349.252 188.412L348.914 188.043L348.898 188.058L348.883 188.074L349.252 188.412ZM349.468 186H349.968V185.5H349.468V186ZM340.954 185.37L340.595 185.719L340.605 185.728L340.954 185.37ZM340.954 176.208L340.6 175.854V175.854L340.954 176.208ZM350.314 176.208L349.955 176.557L349.96 176.562L350.314 176.208ZM350.314 189.474L349.96 189.12L349.955 189.125L350.314 189.474ZM349.252 184.326L348.898 183.972V183.972L349.252 184.326ZM349.252 177.252L348.883 177.59L348.898 177.606L348.914 177.621L349.252 177.252ZM341.998 177.252L341.644 176.898L341.998 177.252ZM341.998 184.326L341.629 184.664L341.644 184.68L341.66 184.695L341.998 184.326ZM342.75 190.122V188.628H341.75V190.122H342.75ZM342.25 189.128H348.766V188.128H342.25V189.128ZM348.766 189.128C349.101 189.128 349.396 188.995 349.621 188.75L348.883 188.074C348.844 188.117 348.815 188.128 348.766 188.128V189.128ZM349.59 188.781C349.835 188.556 349.968 188.261 349.968 187.926H348.968C348.968 187.975 348.957 188.004 348.914 188.043L349.59 188.781ZM349.968 187.926V186H348.968V187.926H349.968ZM349.468 185.5H342.502V186.5H349.468V185.5ZM342.502 185.5C342.033 185.5 341.642 185.341 341.302 185.012L340.605 185.728C341.13 186.239 341.771 186.5 342.502 186.5V185.5ZM341.312 185.021C340.983 184.682 340.824 184.291 340.824 183.822H339.824C339.824 184.553 340.085 185.194 340.595 185.719L341.312 185.021ZM340.824 183.822V177.738H339.824V183.822H340.824ZM340.824 177.738C340.824 177.269 340.982 176.887 341.307 176.562L340.6 175.854C340.086 176.369 339.824 177.007 339.824 177.738H340.824ZM341.307 176.562C341.648 176.221 342.037 176.06 342.502 176.06V175.06C341.767 175.06 341.124 175.331 340.6 175.854L341.307 176.562ZM342.502 176.06H348.766V175.06H342.502V176.06ZM348.766 176.06C349.245 176.06 349.631 176.223 349.955 176.557L350.672 175.859C350.157 175.329 349.511 175.06 348.766 175.06V176.06ZM349.96 176.562C350.286 176.887 350.444 177.269 350.444 177.738H351.444C351.444 177.007 351.182 176.369 350.667 175.854L349.96 176.562ZM350.444 177.738V187.926H351.444V177.738H350.444ZM350.444 187.926C350.444 188.41 350.283 188.797 349.96 189.12L350.667 189.828C351.184 189.311 351.444 188.666 351.444 187.926H350.444ZM349.955 189.125C349.631 189.459 349.245 189.622 348.766 189.622V190.622C349.511 190.622 350.157 190.353 350.672 189.823L349.955 189.125ZM348.766 189.622H342.25V190.622H348.766V189.622ZM342.502 185.024H348.766V184.024H342.502V185.024ZM348.766 185.024C349.086 185.024 349.377 184.908 349.605 184.68L348.898 183.972C348.863 184.008 348.83 184.024 348.766 184.024V185.024ZM349.605 184.68C349.837 184.448 349.968 184.155 349.968 183.822H348.968C348.968 183.873 348.955 183.916 348.898 183.972L349.605 184.68ZM349.968 183.822V177.738H348.968V183.822H349.968ZM349.968 177.738C349.968 177.403 349.835 177.108 349.59 176.883L348.914 177.621C348.957 177.66 348.968 177.689 348.968 177.738H349.968ZM349.621 176.914C349.396 176.669 349.101 176.536 348.766 176.536V177.536C348.815 177.536 348.844 177.547 348.883 177.59L349.621 176.914ZM348.766 176.536H342.502V177.536H348.766V176.536ZM342.502 176.536C342.169 176.536 341.876 176.667 341.644 176.898L342.351 177.606C342.408 177.549 342.451 177.536 342.502 177.536V176.536ZM341.644 176.898C341.416 177.127 341.3 177.418 341.3 177.738H342.3C342.3 177.674 342.316 177.641 342.351 177.606L341.644 176.898ZM341.3 177.738V183.822H342.3V177.738H341.3ZM341.3 183.822C341.3 184.141 341.414 184.429 341.629 184.664L342.367 183.988C342.317 183.935 342.3 183.887 342.3 183.822H341.3ZM341.66 184.695C341.895 184.909 342.182 185.024 342.502 185.024V184.024C342.437 184.024 342.389 184.007 342.336 183.957L341.66 184.695ZM353 185.37L352.641 185.719L352.651 185.728L353 185.37ZM352.37 175.56V175.06H351.87V175.56H352.37ZM353.846 175.56H354.346V175.06H353.846V175.56ZM354.044 184.326L353.675 184.664L353.69 184.68L353.706 184.695L354.044 184.326ZM361.316 184.326L361.654 184.695L361.662 184.687L361.67 184.68L361.316 184.326ZM361.532 175.56V175.06H361.032V175.56H361.532ZM363.008 175.56H363.508V175.06H363.008V175.56ZM362.36 185.37L362.714 185.724L362.36 185.37ZM354.548 185.5C354.079 185.5 353.688 185.341 353.349 185.012L352.651 185.728C353.176 186.239 353.817 186.5 354.548 186.5V185.5ZM353.359 185.021C353.029 184.682 352.87 184.291 352.87 183.822H351.87C351.87 184.553 352.131 185.194 352.642 185.719L353.359 185.021ZM352.87 183.822V175.56H351.87V183.822H352.87ZM352.37 176.06H353.846V175.06H352.37V176.06ZM353.346 175.56V183.822H354.346V175.56H353.346ZM353.346 183.822C353.346 184.141 353.461 184.429 353.675 184.664L354.413 183.988C354.363 183.935 354.346 183.887 354.346 183.822H353.346ZM353.706 184.695C353.941 184.909 354.229 185.024 354.548 185.024V184.024C354.484 184.024 354.435 184.007 354.382 183.957L353.706 184.695ZM354.548 185.024H360.812V184.024H354.548V185.024ZM360.812 185.024C361.132 185.024 361.419 184.909 361.654 184.695L360.978 183.957C360.925 184.007 360.877 184.024 360.812 184.024V185.024ZM361.67 184.68C361.901 184.448 362.032 184.155 362.032 183.822H361.032C361.032 183.873 361.019 183.916 360.962 183.972L361.67 184.68ZM362.032 183.822V175.56H361.032V183.822H362.032ZM361.532 176.06H363.008V175.06H361.532V176.06ZM362.508 175.56V183.822H363.508V175.56H362.508ZM362.508 183.822C362.508 184.287 362.347 184.676 362.006 185.016L362.714 185.724C363.237 185.2 363.508 184.557 363.508 183.822H362.508ZM362.006 185.016C361.683 185.34 361.296 185.5 360.812 185.5V186.5C361.552 186.5 362.197 186.24 362.714 185.724L362.006 185.016ZM360.812 185.5H354.548V186.5H360.812V185.5ZM365.216 185.37L364.857 185.719L364.867 185.728L365.216 185.37ZM365.216 176.208L364.862 175.854L364.862 175.854L365.216 176.208ZM374.576 176.208L374.217 176.557L374.227 176.566L374.576 176.208ZM375.224 181.518V182.018H375.724V181.518H375.224ZM366.062 181.518V181.018H365.562V181.518H366.062ZM366.26 184.326L365.891 184.664L365.906 184.68L365.922 184.695L366.26 184.326ZM375.224 184.524H375.724V184.024H375.224V184.524ZM375.224 186V186.5H375.724V186H375.224ZM366.062 180.042H365.562V180.542H366.062V180.042ZM373.73 180.042V180.542H374.23V180.042H373.73ZM373.514 177.252L373.145 177.59L373.16 177.606L373.176 177.621L373.514 177.252ZM366.764 185.5C366.295 185.5 365.904 185.341 365.565 185.012L364.867 185.728C365.392 186.239 366.033 186.5 366.764 186.5V185.5ZM365.574 185.021C365.245 184.682 365.086 184.291 365.086 183.822H364.086C364.086 184.553 364.347 185.194 364.857 185.719L365.574 185.021ZM365.086 183.822V177.738H364.086V183.822H365.086ZM365.086 177.738C365.086 177.269 365.244 176.887 365.57 176.562L364.862 175.854C364.348 176.369 364.086 177.007 364.086 177.738H365.086ZM365.57 176.562C365.91 176.221 366.299 176.06 366.764 176.06V175.06C366.029 175.06 365.386 175.331 364.862 175.854L365.57 176.562ZM366.764 176.06H373.028V175.06H366.764V176.06ZM373.028 176.06C373.507 176.06 373.893 176.223 374.217 176.557L374.934 175.859C374.419 175.329 373.773 175.06 373.028 175.06V176.06ZM374.227 176.566C374.563 176.893 374.724 177.274 374.724 177.738H375.724C375.724 177.002 375.453 176.363 374.925 175.85L374.227 176.566ZM374.724 177.738V181.518H375.724V177.738H374.724ZM375.224 181.018H366.062V182.018H375.224V181.018ZM365.562 181.518V183.822H366.562V181.518H365.562ZM365.562 183.822C365.562 184.141 365.676 184.429 365.891 184.664L366.629 183.988C366.579 183.935 366.562 183.887 366.562 183.822H365.562ZM365.922 184.695C366.157 184.909 366.444 185.024 366.764 185.024V184.024C366.699 184.024 366.651 184.007 366.598 183.957L365.922 184.695ZM366.764 185.024H375.224V184.024H366.764V185.024ZM374.724 184.524V186H375.724V184.524H374.724ZM375.224 185.5H366.764V186.5H375.224V185.5ZM366.062 180.542H373.73V179.542H366.062V180.542ZM374.23 180.042V177.738H373.23V180.042H374.23ZM374.23 177.738C374.23 177.403 374.097 177.108 373.852 176.883L373.176 177.621C373.219 177.66 373.23 177.689 373.23 177.738H374.23ZM373.883 176.914C373.658 176.669 373.363 176.536 373.028 176.536V177.536C373.077 177.536 373.106 177.547 373.145 177.59L373.883 176.914ZM373.028 176.536H366.764V177.536H373.028V176.536ZM366.764 176.536C366.431 176.536 366.138 176.667 365.906 176.898L366.614 177.606C366.67 177.549 366.713 177.536 366.764 177.536V176.536ZM365.906 176.898C365.678 177.127 365.562 177.418 365.562 177.738H366.562C366.562 177.674 366.578 177.641 366.614 177.606L365.906 176.898ZM365.562 177.738V180.042H366.562V177.738H365.562ZM376.979 186H376.479V186.5H376.979V186ZM377.609 176.208L377.255 175.854V175.854L377.609 176.208ZM385.025 175.56H385.525V175.06H385.025V175.56ZM385.025 177.036V177.536H385.525V177.036H385.025ZM378.455 186V186.5H378.955V186H378.455ZM377.479 186V177.738H376.479V186H377.479ZM377.479 177.738C377.479 177.269 377.637 176.887 377.963 176.562L377.255 175.854C376.741 176.369 376.479 177.007 376.479 177.738H377.479ZM377.963 176.562C378.303 176.221 378.692 176.06 379.157 176.06V175.06C378.422 175.06 377.779 175.331 377.255 175.854L377.963 176.562ZM379.157 176.06H385.025V175.06H379.157V176.06ZM384.525 175.56V177.036H385.525V175.56H384.525ZM385.025 176.536H379.157V177.536H385.025V176.536ZM379.157 176.536C378.824 176.536 378.531 176.667 378.299 176.898L379.007 177.606C379.063 177.549 379.106 177.536 379.157 177.536V176.536ZM378.299 176.898C378.071 177.127 377.955 177.418 377.955 177.738H378.955C378.955 177.674 378.971 177.641 379.007 177.606L378.299 176.898ZM377.955 177.738V186H378.955V177.738H377.955ZM378.455 185.5H376.979V186.5H378.455V185.5ZM386.19 186H385.69V186.5H386.19V186ZM386.19 175.56V175.06H385.69V175.56H386.19ZM387.666 175.56H388.166V175.06H387.666V175.56ZM387.666 186V186.5H388.166V186H387.666ZM386.19 173.616H385.69V174.116H386.19V173.616ZM386.19 172.14V171.64H385.69V172.14H386.19ZM387.666 172.14H388.166V171.64H387.666V172.14ZM387.666 173.616V174.116H388.166V173.616H387.666ZM386.69 186V175.56H385.69V186H386.69ZM386.19 176.06H387.666V175.06H386.19V176.06ZM387.166 175.56V186H388.166V175.56H387.166ZM387.666 185.5H386.19V186.5H387.666V185.5ZM386.69 173.616V172.14H385.69V173.616H386.69ZM386.19 172.64H387.666V171.64H386.19V172.64ZM387.166 172.14V173.616H388.166V172.14H387.166ZM387.666 173.116H386.19V174.116H387.666V173.116ZM389.931 185.37L389.573 185.719L389.583 185.728L389.931 185.37ZM389.301 180.042V179.542H388.801V180.042H389.301ZM398.445 180.042V180.542H398.945V180.042H398.445ZM398.229 177.252L397.861 177.59L397.875 177.606L397.891 177.621L398.229 177.252ZM389.301 177.036H388.801V177.536H389.301V177.036ZM389.301 175.56V175.06H388.801V175.56H389.301ZM399.291 176.208L398.933 176.557L398.943 176.566L399.291 176.208ZM399.939 186V186.5H400.439V186H399.939ZM398.445 184.524V185.024H398.945V184.524H398.445ZM398.445 181.518H398.945V181.018H398.445V181.518ZM390.777 181.518V181.018H390.277V181.518H390.777ZM390.975 184.326L390.607 184.664L390.621 184.68L390.637 184.695L390.975 184.326ZM391.479 185.5C391.01 185.5 390.619 185.341 390.28 185.012L389.583 185.728C390.108 186.239 390.748 186.5 391.479 186.5V185.5ZM390.29 185.021C389.96 184.682 389.801 184.291 389.801 183.822H388.801C388.801 184.553 389.062 185.194 389.573 185.719L390.29 185.021ZM389.801 183.822V180.042H388.801V183.822H389.801ZM389.301 180.542H398.445V179.542H389.301V180.542ZM398.945 180.042V177.738H397.945V180.042H398.945ZM398.945 177.738C398.945 177.403 398.812 177.108 398.567 176.883L397.891 177.621C397.934 177.66 397.945 177.689 397.945 177.738H398.945ZM398.598 176.914C398.373 176.669 398.078 176.536 397.743 176.536V177.536C397.792 177.536 397.821 177.547 397.861 177.59L398.598 176.914ZM397.743 176.536H389.301V177.536H397.743V176.536ZM389.801 177.036V175.56H388.801V177.036H389.801ZM389.301 176.06H397.743V175.06H389.301V176.06ZM397.743 176.06C398.223 176.06 398.609 176.223 398.933 176.557L399.65 175.859C399.134 175.329 398.488 175.06 397.743 175.06V176.06ZM398.943 176.566C399.278 176.893 399.439 177.274 399.439 177.738H400.439C400.439 177.002 400.168 176.363 399.64 175.85L398.943 176.566ZM399.439 177.738V186H400.439V177.738H399.439ZM399.939 185.5H391.479V186.5H399.939V185.5ZM391.479 185.024H398.445V184.024H391.479V185.024ZM398.945 184.524V181.518H397.945V184.524H398.945ZM398.445 181.018H390.777V182.018H398.445V181.018ZM390.277 181.518V183.822H391.277V181.518H390.277ZM390.277 183.822C390.277 184.141 390.392 184.429 390.607 184.664L391.344 183.988C391.295 183.935 391.277 183.887 391.277 183.822H390.277ZM390.637 184.695C390.872 184.909 391.16 185.024 391.479 185.024V184.024C391.415 184.024 391.367 184.007 391.313 183.957L390.637 184.695Z" fill="white"/>
<g filter="url(#filter1_i)">
<path d="M172.76 168V127.104H152.28V121.92H198.36V127.104H177.944V168H172.76ZM203.019 168V118.72H208.267V130.88H233.099C235.189 130.88 237.003 131.648 238.539 133.184C240.075 134.677 240.843 136.491 240.843 138.624V168H235.595V138.624C235.595 137.941 235.339 137.365 234.826 136.896C234.357 136.384 233.781 136.128 233.099 136.128H210.827C210.144 136.128 209.547 136.384 209.035 136.896C208.523 137.365 208.267 137.941 208.267 138.624V168H203.019ZM253.321 168C251.187 168 249.353 167.253 247.817 165.76C246.323 164.224 245.577 162.389 245.577 160.256V138.624C245.577 136.491 246.323 134.677 247.817 133.184C249.353 131.648 251.187 130.88 253.321 130.88H275.593C277.769 130.88 279.603 131.648 281.097 133.184C282.633 134.677 283.401 136.491 283.401 138.624V152.064H250.825V160.256C250.825 160.939 251.059 161.536 251.529 162.048C252.041 162.517 252.638 162.752 253.321 162.752H283.401V168H253.321ZM250.825 146.816H278.089V138.624C278.089 137.941 277.833 137.365 277.321 136.896C276.851 136.384 276.275 136.128 275.593 136.128H253.321C252.638 136.128 252.041 136.384 251.529 136.896C251.059 137.365 250.825 137.941 250.825 138.624V146.816ZM290.273 168V121.92H295.521V142.336H310.369L327.521 121.92H334.177V121.984L314.913 144.96L334.241 167.936V168H327.521L310.369 147.584H295.521V168H290.273ZM340.953 168V130.88H346.201V168H340.953ZM340.953 123.968V118.72H346.201V123.968H340.953ZM353.456 168V130.88H383.536C385.669 130.88 387.483 131.648 388.976 133.184C390.512 134.677 391.28 136.491 391.28 138.624V168H386.032V138.624C386.032 137.941 385.776 137.365 385.264 136.896C384.795 136.384 384.219 136.128 383.536 136.128H361.264C360.581 136.128 359.984 136.384 359.472 136.896C358.96 137.365 358.704 137.941 358.704 138.624V168H353.456ZM404.035 182.656V177.344H427.203C427.885 177.344 428.461 177.088 428.931 176.576C429.443 176.107 429.699 175.531 429.699 174.848V168H404.931C402.797 168 400.963 167.253 399.427 165.76C397.933 164.224 397.187 162.389 397.187 160.256V138.624C397.187 136.491 397.933 134.677 399.427 133.184C400.963 131.648 402.797 130.88 404.931 130.88H427.203C429.379 130.88 431.213 131.648 432.707 133.184C434.2 134.677 434.947 136.491 434.947 138.624V174.848C434.947 177.024 434.2 178.859 432.707 180.352C431.213 181.888 429.379 182.656 427.203 182.656H404.035ZM404.931 162.752H427.203C427.885 162.752 428.461 162.517 428.931 162.048C429.443 161.536 429.699 160.939 429.699 160.256V138.624C429.699 137.941 429.443 137.365 428.931 136.896C428.461 136.384 427.885 136.128 427.203 136.128H404.931C404.248 136.128 403.651 136.384 403.139 136.896C402.669 137.365 402.435 137.941 402.435 138.624V160.256C402.435 160.939 402.669 161.536 403.139 162.048C403.651 162.517 404.248 162.752 404.931 162.752Z" fill="#E95353"/>
</g>
<path d="M172.76 168H171.76V169H172.76V168ZM172.76 127.104H173.76V126.104H172.76V127.104ZM152.28 127.104H151.28V128.104H152.28V127.104ZM152.28 121.92V120.92H151.28V121.92H152.28ZM198.36 121.92H199.36V120.92H198.36V121.92ZM198.36 127.104V128.104H199.36V127.104H198.36ZM177.944 127.104V126.104H176.944V127.104H177.944ZM177.944 168V169H178.944V168H177.944ZM173.76 168V127.104H171.76V168H173.76ZM172.76 126.104H152.28V128.104H172.76V126.104ZM153.28 127.104V121.92H151.28V127.104H153.28ZM152.28 122.92H198.36V120.92H152.28V122.92ZM197.36 121.92V127.104H199.36V121.92H197.36ZM198.36 126.104H177.944V128.104H198.36V126.104ZM176.944 127.104V168H178.944V127.104H176.944ZM177.944 167H172.76V169H177.944V167ZM203.019 168H202.019V169H203.019V168ZM203.019 118.72V117.72H202.019V118.72H203.019ZM208.267 118.72H209.267V117.72H208.267V118.72ZM208.267 130.88H207.267V131.88H208.267V130.88ZM238.539 133.184L237.831 133.891L237.841 133.901L238.539 133.184ZM240.843 168V169H241.843V168H240.843ZM235.595 168H234.595V169H235.595V168ZM234.826 136.896L234.089 137.572L234.119 137.604L234.151 137.633L234.826 136.896ZM209.035 136.896L209.71 137.633L209.726 137.618L209.742 137.603L209.035 136.896ZM208.267 168V169H209.267V168H208.267ZM204.019 168V118.72H202.019V168H204.019ZM203.019 119.72H208.267V117.72H203.019V119.72ZM207.267 118.72V130.88H209.267V118.72H207.267ZM208.267 131.88H233.099V129.88H208.267V131.88ZM233.099 131.88C234.913 131.88 236.475 132.534 237.831 133.891L239.246 132.477C237.53 130.762 235.466 129.88 233.099 129.88V131.88ZM237.841 133.901C239.185 135.207 239.843 136.762 239.843 138.624H241.843C241.843 136.219 240.964 134.148 239.236 132.467L237.841 133.901ZM239.843 138.624V168H241.843V138.624H239.843ZM240.843 167H235.595V169H240.843V167ZM236.595 168V138.624H234.595V168H236.595ZM236.595 138.624C236.595 137.656 236.217 136.814 235.502 136.159L234.151 137.633C234.46 137.917 234.595 138.227 234.595 138.624H236.595ZM235.564 136.22C234.909 135.506 234.067 135.128 233.099 135.128V137.128C233.495 137.128 233.806 137.262 234.089 137.572L235.564 136.22ZM233.099 135.128H210.827V137.128H233.099V135.128ZM210.827 135.128C209.861 135.128 209.014 135.502 208.327 136.189L209.742 137.603C210.079 137.266 210.426 137.128 210.827 137.128V135.128ZM208.359 136.159C207.644 136.814 207.267 137.656 207.267 138.624H209.267C209.267 138.227 209.401 137.917 209.71 137.633L208.359 136.159ZM207.267 138.624V168H209.267V138.624H207.267ZM208.267 167H203.019V169H208.267V167ZM247.817 165.76L247.1 166.457L247.109 166.467L247.119 166.477L247.817 165.76ZM247.817 133.184L247.109 132.477L247.109 132.477L247.817 133.184ZM281.097 133.184L280.38 133.881L280.389 133.891L280.399 133.901L281.097 133.184ZM283.401 152.064V153.064H284.401V152.064H283.401ZM250.825 152.064V151.064H249.825V152.064H250.825ZM251.529 162.048L250.791 162.724L250.821 162.756L250.853 162.785L251.529 162.048ZM283.401 162.752H284.401V161.752H283.401V162.752ZM283.401 168V169H284.401V168H283.401ZM250.825 146.816H249.825V147.816H250.825V146.816ZM278.089 146.816V147.816H279.089V146.816H278.089ZM277.321 136.896L276.583 137.572L276.613 137.604L276.645 137.633L277.321 136.896ZM251.529 136.896L252.236 137.603L251.529 136.896ZM253.321 167C251.449 167 249.864 166.356 248.514 165.043L247.119 166.477C248.841 168.151 250.926 169 253.321 169V167ZM248.533 165.063C247.221 163.713 246.577 162.128 246.577 160.256H244.577C244.577 162.651 245.426 164.735 247.1 166.457L248.533 165.063ZM246.577 160.256V138.624H244.577V160.256H246.577ZM246.577 138.624C246.577 136.753 247.22 135.195 248.524 133.891L247.109 132.477C245.426 134.16 244.577 136.228 244.577 138.624H246.577ZM248.524 133.891C249.876 132.539 251.458 131.88 253.321 131.88V129.88C250.917 129.88 248.829 130.757 247.109 132.477L248.524 133.891ZM253.321 131.88H275.593V129.88H253.321V131.88ZM275.593 131.88C277.503 131.88 279.078 132.542 280.38 133.881L281.813 132.487C280.129 130.754 278.034 129.88 275.593 129.88V131.88ZM280.399 133.901C281.743 135.207 282.401 136.762 282.401 138.624H284.401C284.401 136.219 283.522 134.148 281.794 132.467L280.399 133.901ZM282.401 138.624V152.064H284.401V138.624H282.401ZM283.401 151.064H250.825V153.064H283.401V151.064ZM249.825 152.064V160.256H251.825V152.064H249.825ZM249.825 160.256C249.825 161.194 250.156 162.031 250.791 162.724L252.266 161.372C251.962 161.041 251.825 160.684 251.825 160.256H249.825ZM250.853 162.785C251.546 163.42 252.383 163.752 253.321 163.752V161.752C252.893 161.752 252.535 161.614 252.204 161.311L250.853 162.785ZM253.321 163.752H283.401V161.752H253.321V163.752ZM282.401 162.752V168H284.401V162.752H282.401ZM283.401 167H253.321V169H283.401V167ZM250.825 147.816H278.089V145.816H250.825V147.816ZM279.089 146.816V138.624H277.089V146.816H279.089ZM279.089 138.624C279.089 137.656 278.711 136.814 277.996 136.159L276.645 137.633C276.954 137.917 277.089 138.227 277.089 138.624H279.089ZM278.058 136.22C277.403 135.506 276.561 135.128 275.593 135.128V137.128C275.989 137.128 276.3 137.262 276.583 137.572L278.058 136.22ZM275.593 135.128H253.321V137.128H275.593V135.128ZM253.321 135.128C252.355 135.128 251.508 135.502 250.821 136.189L252.236 137.603C252.573 137.266 252.92 137.128 253.321 137.128V135.128ZM250.821 136.189C250.159 136.852 249.825 137.685 249.825 138.624H251.825C251.825 138.198 251.96 137.879 252.236 137.603L250.821 136.189ZM249.825 138.624V146.816H251.825V138.624H249.825ZM290.273 168H289.273V169H290.273V168ZM290.273 121.92V120.92H289.273V121.92H290.273ZM295.521 121.92H296.521V120.92H295.521V121.92ZM295.521 142.336H294.521V143.336H295.521V142.336ZM310.369 142.336V143.336H310.835L311.135 142.979L310.369 142.336ZM327.521 121.92V120.92H327.055L326.755 121.277L327.521 121.92ZM334.177 121.92H335.177V120.92H334.177V121.92ZM334.177 121.984L334.943 122.626L335.177 122.348V121.984H334.177ZM314.913 144.96L314.147 144.318L313.607 144.961L314.148 145.604L314.913 144.96ZM334.241 167.936H335.241V167.571L335.006 167.292L334.241 167.936ZM334.241 168V169H335.241V168H334.241ZM327.521 168L326.755 168.643L327.055 169H327.521V168ZM310.369 147.584L311.135 146.941L310.835 146.584H310.369V147.584ZM295.521 147.584V146.584H294.521V147.584H295.521ZM295.521 168V169H296.521V168H295.521ZM291.273 168V121.92H289.273V168H291.273ZM290.273 122.92H295.521V120.92H290.273V122.92ZM294.521 121.92V142.336H296.521V121.92H294.521ZM295.521 143.336H310.369V141.336H295.521V143.336ZM311.135 142.979L328.287 122.563L326.755 121.277L309.603 141.693L311.135 142.979ZM327.521 122.92H334.177V120.92H327.521V122.92ZM333.177 121.92V121.984H335.177V121.92H333.177ZM333.411 121.342L314.147 144.318L315.679 145.602L334.943 122.626L333.411 121.342ZM314.148 145.604L333.476 168.58L335.006 167.292L315.678 144.316L314.148 145.604ZM333.241 167.936V168H335.241V167.936H333.241ZM334.241 167H327.521V169H334.241V167ZM328.287 167.357L311.135 146.941L309.603 148.227L326.755 168.643L328.287 167.357ZM310.369 146.584H295.521V148.584H310.369V146.584ZM294.521 147.584V168H296.521V147.584H294.521ZM295.521 167H290.273V169H295.521V167ZM340.953 168H339.953V169H340.953V168ZM340.953 130.88V129.88H339.953V130.88H340.953ZM346.201 130.88H347.201V129.88H346.201V130.88ZM346.201 168V169H347.201V168H346.201ZM340.953 123.968H339.953V124.968H340.953V123.968ZM340.953 118.72V117.72H339.953V118.72H340.953ZM346.201 118.72H347.201V117.72H346.201V118.72ZM346.201 123.968V124.968H347.201V123.968H346.201ZM341.953 168V130.88H339.953V168H341.953ZM340.953 131.88H346.201V129.88H340.953V131.88ZM345.201 130.88V168H347.201V130.88H345.201ZM346.201 167H340.953V169H346.201V167ZM341.953 123.968V118.72H339.953V123.968H341.953ZM340.953 119.72H346.201V117.72H340.953V119.72ZM345.201 118.72V123.968H347.201V118.72H345.201ZM346.201 122.968H340.953V124.968H346.201V122.968ZM353.456 168H352.456V169H353.456V168ZM353.456 130.88V129.88H352.456V130.88H353.456ZM388.976 133.184L388.259 133.881L388.269 133.891L388.279 133.901L388.976 133.184ZM391.28 168V169H392.28V168H391.28ZM386.032 168H385.032V169H386.032V168ZM385.264 136.896L384.527 137.572L384.556 137.604L384.588 137.633L385.264 136.896ZM359.472 136.896L360.148 137.633L360.164 137.618L360.179 137.603L359.472 136.896ZM358.704 168V169H359.704V168H358.704ZM354.456 168V130.88H352.456V168H354.456ZM353.456 131.88H383.536V129.88H353.456V131.88ZM383.536 131.88C385.398 131.88 386.953 132.538 388.259 133.881L389.693 132.487C388.012 130.758 385.941 129.88 383.536 129.88V131.88ZM388.279 133.901C389.622 135.207 390.28 136.762 390.28 138.624H392.28C392.28 136.219 391.402 134.148 389.673 132.467L388.279 133.901ZM390.28 138.624V168H392.28V138.624H390.28ZM391.28 167H386.032V169H391.28V167ZM387.032 168V138.624H385.032V168H387.032ZM387.032 138.624C387.032 137.656 386.654 136.814 385.94 136.159L384.588 137.633C384.898 137.917 385.032 138.227 385.032 138.624H387.032ZM386.001 136.22C385.346 135.506 384.504 135.128 383.536 135.128V137.128C383.933 137.128 384.243 137.262 384.527 137.572L386.001 136.22ZM383.536 135.128H361.264V137.128H383.536V135.128ZM361.264 135.128C360.299 135.128 359.452 135.502 358.765 136.189L360.179 137.603C360.516 137.266 360.864 137.128 361.264 137.128V135.128ZM358.796 136.159C358.082 136.814 357.704 137.656 357.704 138.624H359.704C359.704 138.227 359.838 137.917 360.148 137.633L358.796 136.159ZM357.704 138.624V168H359.704V138.624H357.704ZM358.704 167H353.456V169H358.704V167ZM404.035 182.656H403.035V183.656H404.035V182.656ZM404.035 177.344V176.344H403.035V177.344H404.035ZM428.931 176.576L428.255 175.839L428.223 175.868L428.193 175.9L428.931 176.576ZM429.699 168H430.699V167H429.699V168ZM399.427 165.76L398.71 166.457L398.719 166.467L398.729 166.477L399.427 165.76ZM399.427 133.184L398.719 132.477L398.719 132.477L399.427 133.184ZM432.707 133.184L431.989 133.881L431.999 133.891L432.707 133.184ZM432.707 180.352L431.999 179.645L431.99 179.655L432.707 180.352ZM428.931 162.048L428.223 161.341L428.223 161.341L428.931 162.048ZM428.931 136.896L428.193 137.572L428.223 137.604L428.255 137.633L428.931 136.896ZM403.139 136.896L402.431 136.189L402.431 136.189L403.139 136.896ZM403.139 162.048L402.401 162.724L402.431 162.756L402.463 162.785L403.139 162.048ZM405.035 182.656V177.344H403.035V182.656H405.035ZM404.035 178.344H427.203V176.344H404.035V178.344ZM427.203 178.344C428.171 178.344 429.013 177.966 429.668 177.252L428.193 175.9C427.91 176.21 427.599 176.344 427.203 176.344V178.344ZM429.606 177.313C430.321 176.658 430.699 175.816 430.699 174.848H428.699C428.699 175.245 428.564 175.555 428.255 175.839L429.606 177.313ZM430.699 174.848V168H428.699V174.848H430.699ZM429.699 167H404.931V169H429.699V167ZM404.931 167C403.059 167 401.474 166.356 400.124 165.043L398.729 166.477C400.451 168.151 402.536 169 404.931 169V167ZM400.143 165.063C398.831 163.713 398.187 162.128 398.187 160.256H396.187C396.187 162.651 397.036 164.735 398.71 166.457L400.143 165.063ZM398.187 160.256V138.624H396.187V160.256H398.187ZM398.187 138.624C398.187 136.753 398.83 135.195 400.134 133.891L398.719 132.477C397.036 134.16 396.187 136.228 396.187 138.624H398.187ZM400.134 133.891C401.486 132.539 403.068 131.88 404.931 131.88V129.88C402.527 129.88 400.439 130.757 398.719 132.477L400.134 133.891ZM404.931 131.88H427.203V129.88H404.931V131.88ZM427.203 131.88C429.113 131.88 430.688 132.542 431.99 133.881L433.423 132.487C431.739 130.754 429.644 129.88 427.203 129.88V131.88ZM431.999 133.891C433.303 135.195 433.947 136.753 433.947 138.624H435.947C435.947 136.228 435.097 134.16 433.414 132.477L431.999 133.891ZM433.947 138.624V174.848H435.947V138.624H433.947ZM433.947 174.848C433.947 176.768 433.299 178.345 431.999 179.645L433.414 181.059C435.101 179.372 435.947 177.28 435.947 174.848H433.947ZM431.99 179.655C430.688 180.994 429.113 181.656 427.203 181.656V183.656C429.644 183.656 431.739 182.782 433.423 181.049L431.99 179.655ZM427.203 181.656H404.035V183.656H427.203V181.656ZM404.931 163.752H427.203V161.752H404.931V163.752ZM427.203 163.752C428.142 163.752 428.975 163.418 429.638 162.755L428.223 161.341C427.947 161.617 427.628 161.752 427.203 161.752V163.752ZM429.638 162.755C430.325 162.068 430.699 161.221 430.699 160.256H428.699C428.699 160.656 428.56 161.004 428.223 161.341L429.638 162.755ZM430.699 160.256V138.624H428.699V160.256H430.699ZM430.699 138.624C430.699 137.656 430.321 136.814 429.606 136.159L428.255 137.633C428.564 137.917 428.699 138.227 428.699 138.624H430.699ZM429.668 136.22C429.013 135.506 428.171 135.128 427.203 135.128V137.128C427.599 137.128 427.91 137.262 428.193 137.572L429.668 136.22ZM427.203 135.128H404.931V137.128H427.203V135.128ZM404.931 135.128C403.965 135.128 403.118 135.502 402.431 136.189L403.846 137.603C404.183 137.266 404.53 137.128 404.931 137.128V135.128ZM402.431 136.189C401.769 136.852 401.435 137.685 401.435 138.624H403.435C403.435 138.198 403.57 137.879 403.846 137.603L402.431 136.189ZM401.435 138.624V160.256H403.435V138.624H401.435ZM401.435 160.256C401.435 161.194 401.766 162.031 402.401 162.724L403.876 161.372C403.572 161.041 403.435 160.684 403.435 160.256H401.435ZM402.463 162.785C403.156 163.42 403.993 163.752 404.931 163.752V161.752C404.503 161.752 404.145 161.614 403.814 161.311L402.463 162.785Z" fill="#E95353"/>
<g clip-path="url(#clip0)">
<path d="M5.10568 160.733V167.802H20.561H26.9254H58.6292H68.624H74.0425V160.733H5.10568Z" fill="#8C5549"/>
<g opacity="0.15">
<path opacity="0.15" d="M5.10568 160.733V167.802H6.67797H7.32551H10.5509H11.5674H12.1186V160.733H5.10568Z" fill="#202020"/>
</g>
<path d="M84.3866 82.3227H72.5954V115.728H84.3866V82.3227Z" fill="#FEE298"/>
<path d="M107.877 82.3227H96.0859V126.265H107.877V82.3227Z" fill="#FEE298"/>
<path d="M131.46 82.3227H119.668V115.728H131.46V82.3227Z" fill="#FEE298"/>
<path d="M114.821 121.858V115.739H119.668V73.1421H107.877V126.265H110.482C112.879 126.265 114.821 124.292 114.821 121.858Z" fill="#F7BE63"/>
<path d="M89.505 115.739V121.858C89.505 124.292 91.4482 126.264 93.8452 126.264H96.1785V73.1421H84.3873V115.739H89.505Z" fill="#F7BE63"/>
<path d="M75.6225 138.374C73.0003 124.364 53.3073 120.282 39.3852 120.282C25.5059 120.282 5.26407 124.3 2.59658 138.245C2.59658 138.245 1.35929 147.79 6.01837 147.79H73.4343C74.7261 147.513 76.44 143.662 75.6225 138.374Z" fill="#EFAC52"/>
<g opacity="0.15">
<path opacity="0.15" d="M9.67911 138.245C12.1272 125.451 29.3659 121.014 42.9137 120.369C41.7075 120.31 40.5266 120.282 39.3852 120.282C25.5059 120.282 5.26407 124.3 2.59658 138.245C2.59658 138.245 1.35929 147.79 6.01837 147.79H13.1012C8.44183 147.79 9.67911 138.245 9.67911 138.245Z" fill="#202020"/>
</g>
<path d="M26.9253 167.802H7.93208H7.70785C4.67458 167.802 2.21606 170.06 2.21606 172.846V172.896C2.21606 175.683 4.67484 177.942 7.70785 177.942H37.1493L26.9253 167.802Z" fill="#D33D3D"/>
<path d="M71.2147 167.802H58.6291L48.4055 177.942H71.2149C74.2482 177.942 76.7062 175.683 76.7062 172.896V172.846C76.7062 170.06 74.2479 167.802 71.2147 167.802Z" fill="#D33D3D"/>
<g opacity="0.15">
<path opacity="0.15" d="M9.28576 172.896V172.846C9.28576 170.06 11.7445 167.801 14.7773 167.801H7.93208H7.70785C4.67458 167.801 2.21606 170.06 2.21606 172.846V172.896C2.21606 175.682 4.67484 177.942 7.70785 177.942H14.7773C11.7443 177.942 9.28576 175.682 9.28576 172.896Z" fill="#202020"/>
</g>
<path d="M42.777 183.524L58.6291 167.802H26.9254L42.777 183.524Z" fill="#FCAF29"/>
<path d="M76.0373 178.028H48.3178L42.777 183.524L37.2363 178.028H36.8614H2.15857V179.785C2.15857 179.843 2.16258 179.9 2.16472 179.958C2.16232 180.016 2.15857 180.073 2.15857 180.131V181.706V182.106C2.15857 182.165 2.16258 182.221 2.16472 182.28C2.16232 182.338 2.15857 182.395 2.15857 182.453V182.553V184.876C2.15857 187.075 3.39933 188.858 4.92935 188.858H15.176H21.7954H73.2665C74.7965 188.858 76.0373 187.075 76.0373 184.876V182.553V182.453C76.0373 182.394 76.0322 182.338 76.0311 182.28C76.0322 182.221 76.0373 182.165 76.0373 182.106V181.706V180.131C76.0373 180.073 76.0322 180.016 76.0311 179.958C76.0322 179.9 76.0373 179.843 76.0373 179.785V178.028Z" fill="#EFAC52"/>
<g opacity="0.15">
<path opacity="0.15" d="M9.17769 184.876V182.553V182.453C9.17769 182.394 9.1817 182.338 9.18385 182.28C9.18144 182.221 9.17769 182.165 9.17769 182.106V181.706V180.131C9.17769 180.073 9.1817 180.016 9.18385 179.958C9.18144 179.9 9.17769 179.843 9.17769 179.785V178.028H2.15857V179.785C2.15857 179.843 2.16258 179.9 2.16472 179.958C2.16232 180.016 2.15857 180.073 2.15857 180.131V181.706V182.106C2.15857 182.165 2.16258 182.221 2.16472 182.28C2.16232 182.338 2.15857 182.395 2.15857 182.453V182.553V184.876C2.15857 187.075 3.39933 188.858 4.92935 188.858H11.9482C10.4182 188.858 9.17769 187.075 9.17769 184.876Z" fill="#202020"/>
</g>
<path d="M134.14 127.497L134.842 115.739H114.821V121.858C114.821 124.292 112.879 126.265 110.481 126.265H93.8452C91.4485 126.265 89.5051 124.292 89.5051 121.858V115.739H69.4851L70.2844 129.147C72.9944 131.586 74.9199 134.624 75.6223 138.374C76.4397 143.662 74.7259 147.514 73.4338 147.79H71.3956L72.1676 160.733H74.0422V167.801H72.5885L72.5986 167.969C74.96 168.534 76.706 170.5 76.706 172.846V172.896C76.706 175.048 75.237 176.88 73.1731 177.605L73.1986 178.028H76.037V179.785C76.037 179.843 76.032 179.9 76.0309 179.958C76.032 180.016 76.037 180.073 76.037 180.131V181.706V182.106C76.037 182.165 76.032 182.221 76.0309 182.28C76.032 182.337 76.037 182.394 76.037 182.452V182.553V184.876C76.037 186.356 75.4738 187.644 74.6397 188.331H130.514L133.704 134.813" fill="#E95353"/>
<g opacity="0.15">
<path opacity="0.15" d="M70.2881 129.269C70.3207 129.816 70.5696 130.329 70.9814 130.7C73.5012 132.968 75.0721 135.667 75.652 138.722C76.2112 142.386 75.3563 144.863 74.8639 145.679H73.5547C72.9607 145.679 72.3926 145.918 71.9848 146.341C71.7611 146.573 71.5987 146.85 71.5013 147.148L75.8353 148.339C82.8372 139.14 78.4958 131.294 77.8897 130.295C77.6877 129.99 77.5657 129.638 77.5437 129.27L76.7445 115.862C76.71 115.281 76.9214 114.713 77.3291 114.29C77.7372 113.867 78.305 113.627 78.8993 113.627H79.8519V83.1717H72.5967V113.627H71.6439C71.0496 113.627 70.4815 113.867 70.0738 114.29C69.666 114.713 69.4546 115.281 69.4888 115.862L70.2881 129.269Z" fill="#202020"/>
</g>
<path d="M21.909 123.869C20.7166 123.869 19.7504 124.814 19.7504 125.98V126.299C19.7504 127.465 20.7166 128.41 21.909 128.41C23.1013 128.41 24.0675 127.465 24.0675 126.299V125.98C24.0675 124.814 23.1013 123.869 21.909 123.869Z" fill="#202020"/>
<path d="M32.393 123.869C31.2006 123.869 30.2344 124.814 30.2344 125.98V126.299C30.2344 127.465 31.2006 128.41 32.393 128.41C33.5853 128.41 34.5515 127.465 34.5515 126.299V125.98C34.5515 124.814 33.5853 123.869 32.393 123.869Z" fill="#202020"/>
<path d="M42.8764 123.869C41.6841 123.869 40.7179 124.814 40.7179 125.98V126.299C40.7179 127.465 41.6841 128.41 42.8764 128.41C44.0688 128.41 45.035 127.465 45.035 126.299V125.98C45.035 124.814 44.0688 123.869 42.8764 123.869Z" fill="#202020"/>
<path d="M53.3604 123.869C52.1681 123.869 51.2019 124.814 51.2019 125.98V126.299C51.2019 127.465 52.1681 128.41 53.3604 128.41C54.5528 128.41 55.519 127.465 55.519 126.299V125.98C55.519 124.814 54.5528 123.869 53.3604 123.869Z" fill="#202020"/>
<path d="M27.1514 131.678C25.959 131.678 24.9928 132.623 24.9928 133.789V134.108C24.9928 135.274 25.959 136.219 27.1514 136.219C28.3437 136.219 29.3099 135.274 29.3099 134.108V133.789C29.3099 132.623 28.3437 131.678 27.1514 131.678Z" fill="#202020"/>
<path d="M37.6348 131.678C36.4425 131.678 35.4763 132.623 35.4763 133.789V134.108C35.4763 135.274 36.4425 136.219 37.6348 136.219C38.8271 136.219 39.7934 135.274 39.7934 134.108V133.789C39.7934 132.623 38.8269 131.678 37.6348 131.678Z" fill="#202020"/>
<path d="M48.1188 131.678C46.9265 131.678 45.9603 132.623 45.9603 133.789V134.108C45.9603 135.274 46.9265 136.219 48.1188 136.219C49.3112 136.219 50.2774 135.274 50.2774 134.108V133.789C50.2774 132.623 49.3109 131.678 48.1188 131.678Z" fill="#202020"/>
<path d="M134.412 111.259C134.005 110.836 133.437 110.596 132.842 110.596H131.617V79.2914C131.617 78.1251 130.651 77.1801 129.459 77.1801H119.826V70.1113C119.826 68.9451 118.86 68 117.668 68H105.877C104.685 68 103.719 68.9451 103.719 70.1113V77.1801H96.337V70.1113C96.337 68.9451 95.3708 68 94.1785 68H82.3874C81.195 68 80.2288 68.9451 80.2288 70.1113V77.1801H70.5962C69.4039 77.1801 68.4377 78.1251 68.4377 79.2914V110.596H67.4848C66.8908 110.596 66.3227 110.836 65.9149 111.259C65.5072 111.682 65.2955 112.25 65.33 112.831L65.8593 121.706C64.2651 120.734 62.4948 119.858 60.5516 119.087C51.8895 115.653 42.3191 115.14 37.3849 115.14C32.4275 115.14 22.7968 115.647 13.9948 119.039C5.16576 122.442 -0.200801 127.901 -1.52585 134.826C-1.53361 134.867 -1.5403 134.908 -1.54538 134.949C-1.70085 136.149 -2.34197 142.285 0.320442 145.239C1.28158 146.307 2.56008 146.871 4.01758 146.871H67.3593L67.4784 148.867H0.95166C-0.24067 148.867 -1.2069 149.812 -1.2069 150.978C-1.2069 152.144 -0.24067 153.089 0.95166 153.089H67.7302L67.8795 155.592H3.10567C1.91334 155.592 0.947111 156.537 0.947111 157.703V164.22C-0.812218 165.532 -1.94274 167.553 -1.94274 169.816V169.866C-1.94274 171.085 -1.61442 172.234 -1.03672 173.24C-1.61709 173.618 -2 174.264 -2 174.997V176.755C-2 176.813 -1.99839 176.87 -1.99572 176.927C-1.99839 176.985 -2 177.042 -2 177.1V179.075C-2 179.134 -1.99839 179.191 -1.99572 179.249C-1.99839 179.306 -2 179.364 -2 179.422V181.845C-2 185.262 0.165247 187.939 2.92933 187.939H13.176C14.3683 187.939 15.3345 186.994 15.3345 185.827C15.3345 184.661 14.3683 183.716 13.176 183.716H2.97964C2.76638 183.589 2.31711 182.929 2.31711 181.845L2.31685 179.437L2.32166 179.33C2.32407 179.277 2.32407 179.224 2.32193 179.171L2.31685 177.115L2.31711 177.108H34.3332L39.2403 181.975C39.6459 182.378 40.1996 182.604 40.7773 182.604C41.355 182.604 41.9086 182.377 42.3142 181.975L47.2214 177.108H71.1991H71.8793L71.8787 179.071C71.8763 179.117 71.8745 179.163 71.8734 179.21C71.8731 179.237 71.8731 179.263 71.8734 179.29C71.8745 179.335 71.8766 179.381 71.8795 179.421V181.845C71.8795 181.97 71.8723 182.088 71.8613 182.201C71.8565 182.251 71.8488 182.298 71.8418 182.346C71.8335 182.406 71.8255 182.466 71.8145 182.522C71.8038 182.577 71.7912 182.63 71.7781 182.682C71.7674 182.725 71.7567 182.768 71.745 182.808C71.7292 182.862 71.712 182.914 71.6941 182.965C71.6829 182.996 71.6716 183.026 71.6599 183.055C71.6382 183.109 71.6157 183.162 71.5922 183.211C71.5847 183.226 71.5769 183.241 71.5694 183.256C71.4709 183.447 71.3596 183.595 71.2507 183.684C71.2422 183.691 71.2355 183.7 71.2272 183.707C71.224 183.709 71.22 183.714 71.2168 183.716H19.7954C18.603 183.716 17.6368 184.661 17.6368 185.827C17.6368 186.993 18.603 187.938 19.7954 187.938H71.2665C71.9949 187.938 72.6799 187.748 73.2966 187.412H128.513C129.657 187.412 130.602 186.539 130.668 185.423L133.859 131.905C133.928 130.741 133.02 129.742 131.829 129.675C130.634 129.603 129.618 130.495 129.549 131.66L126.477 183.189H76.0784C76.0795 183.182 76.08 183.175 76.0813 183.168C76.1124 182.988 76.1354 182.805 76.1538 182.62C76.1576 182.583 76.1637 182.548 76.1667 182.511C76.1851 182.293 76.1958 182.071 76.1958 181.845V179.422C76.1958 179.367 76.1942 179.312 76.1913 179.251C76.194 179.193 76.1958 179.135 76.1958 179.076V177.101C76.1958 177.046 76.1942 176.991 76.1913 176.929C76.194 176.872 76.1958 176.813 76.1958 176.755V174.998C76.1958 174.929 76.1918 174.861 76.1851 174.794C76.1827 174.772 76.179 174.75 76.1763 174.728C76.1707 174.683 76.1643 174.639 76.1557 174.596C76.1506 174.57 76.1442 174.545 76.1381 174.519C76.129 174.48 76.1191 174.441 76.1075 174.403C76.0998 174.377 76.091 174.351 76.0821 174.326C76.0698 174.289 76.0562 174.253 76.0417 174.218C76.0313 174.192 76.0206 174.167 76.0096 174.142C75.9936 174.107 75.9764 174.073 75.9585 174.038C75.9465 174.015 75.9344 173.992 75.9213 173.969C75.9007 173.933 75.8785 173.898 75.8558 173.863C75.8434 173.844 75.8317 173.825 75.8183 173.806C75.7875 173.762 75.7543 173.72 75.7204 173.678C75.7139 173.67 75.7083 173.662 75.7016 173.654C76.3374 172.704 76.7406 171.607 76.8391 170.429C76.8421 170.397 76.845 170.364 76.8471 170.332C76.8578 170.178 76.8651 170.023 76.8651 169.867V169.817C76.8651 169.688 76.861 169.559 76.8536 169.432C76.8511 169.393 76.8469 169.354 76.8442 169.315C76.8375 169.227 76.8306 169.139 76.8209 169.051C76.8158 169.006 76.8086 168.961 76.8025 168.916C76.7915 168.835 76.7805 168.755 76.7669 168.676C76.7586 168.628 76.7487 168.58 76.7396 168.533C76.7249 168.457 76.7096 168.382 76.6927 168.308C76.6812 168.258 76.6684 168.208 76.6556 168.158C76.6376 168.088 76.6189 168.017 76.5988 167.948C76.5836 167.895 76.5675 167.843 76.5509 167.791C76.5306 167.727 76.5092 167.662 76.4867 167.598C76.4672 167.543 76.4474 167.487 76.4262 167.432C76.4046 167.375 76.3818 167.317 76.3585 167.261C76.3339 167.201 76.309 167.141 76.2825 167.081C76.2617 167.034 76.2392 166.987 76.217 166.94C76.1857 166.873 76.1538 166.806 76.1204 166.74C76.1038 166.708 76.0861 166.676 76.0693 166.644C76.0275 166.565 75.9855 166.487 75.9406 166.409C75.94 166.409 75.9395 166.408 75.939 166.407C75.5898 165.806 75.1499 165.255 74.634 164.771C74.6268 164.765 74.6198 164.758 74.6131 164.752C74.5361 164.68 74.4574 164.61 74.3771 164.541C74.3619 164.528 74.3466 164.515 74.3314 164.502C74.288 164.466 74.246 164.428 74.2013 164.392V157.704C74.2013 157.633 74.1976 157.563 74.1903 157.493C74.1879 157.47 74.1831 157.447 74.1799 157.423C74.1738 157.378 74.1679 157.332 74.1588 157.288C74.1534 157.261 74.1451 157.234 74.1387 157.207C74.1288 157.167 74.1197 157.128 74.1079 157.089C74.0994 157.061 74.0884 157.034 74.0785 157.007C74.0657 156.97 74.0531 156.934 74.0381 156.899C74.0263 156.871 74.0124 156.844 73.9996 156.817C73.9838 156.784 73.9683 156.75 73.9509 156.718C73.9361 156.691 73.9201 156.665 73.9043 156.638C73.8856 156.607 73.8671 156.576 73.847 156.546C73.8297 156.521 73.8115 156.496 73.793 156.471C73.7716 156.442 73.7504 156.414 73.7277 156.386C73.7079 156.362 73.687 156.338 73.6664 156.315C73.6429 156.289 73.6191 156.262 73.5939 156.237C73.572 156.215 73.549 156.193 73.5262 156.172C73.5 156.148 73.4738 156.125 73.4465 156.102C73.4224 156.081 73.3978 156.062 73.3729 156.043C73.3443 156.021 73.3159 156 73.2862 155.979C73.2602 155.961 73.234 155.944 73.2073 155.927C73.1768 155.908 73.146 155.89 73.1147 155.872C73.0871 155.857 73.059 155.842 73.0307 155.827C72.9986 155.811 72.9656 155.796 72.9325 155.781C72.9033 155.769 72.8741 155.756 72.8444 155.744C72.8102 155.731 72.7754 155.719 72.7401 155.707C72.7101 155.697 72.6799 155.687 72.6494 155.678C72.613 155.668 72.576 155.659 72.5389 155.65C72.5081 155.643 72.4776 155.636 72.4463 155.63C72.408 155.623 72.3689 155.618 72.3296 155.613C72.2986 155.609 72.2675 155.604 72.2357 155.602C72.225 155.601 72.2151 155.598 72.2044 155.598L72.0548 153.089H74.1965C75.3888 153.089 76.3551 152.144 76.3551 150.978C76.3551 149.812 75.3888 148.867 74.1965 148.867H71.803L71.6834 146.857C71.7548 146.849 71.8255 146.837 71.8959 146.822C74.878 146.184 76.6465 140.783 75.757 135.028C75.7535 135.006 75.7501 134.985 75.7458 134.964C75.704 134.74 75.6577 134.518 75.608 134.298C75.581 134.178 75.5499 134.06 75.5205 133.941C75.4967 133.845 75.4745 133.749 75.449 133.653C75.4041 133.484 75.3549 133.316 75.3051 133.148C75.2933 133.108 75.2826 133.068 75.2706 133.029C74.3769 130.095 72.743 127.459 70.3902 125.165L69.7734 114.819H82.3876H85.3465V118.827C85.3465 119.052 85.358 119.274 85.3802 119.493C85.7136 122.775 88.4857 125.345 91.8452 125.345H94.0864H94.1785H105.877H108.481C111.841 125.345 114.613 122.775 114.946 119.493C114.969 119.274 114.98 119.052 114.98 118.827V114.819H117.668H130.554L129.985 124.344C129.916 125.508 130.824 126.507 132.015 126.574C133.202 126.642 134.226 125.754 134.295 124.589L134.997 112.831C135.031 112.25 134.82 111.682 134.412 111.259ZM69.2147 166.882C69.5075 166.882 69.7897 166.919 70.0605 166.981C70.0694 166.984 70.0774 166.988 70.0865 166.99C70.7201 167.141 71.2705 167.449 71.689 167.857C71.689 167.857 71.6893 167.857 71.6896 167.858C71.7484 167.915 71.8049 167.975 71.8584 168.036C71.86 168.039 71.8619 168.041 71.8635 168.043C72.0658 168.276 72.2269 168.536 72.3427 168.813C72.3529 168.838 72.3639 168.862 72.3732 168.887C72.392 168.936 72.408 168.985 72.4235 169.035C72.4356 169.074 72.4473 169.113 72.4578 169.152C72.4693 169.195 72.48 169.238 72.4891 169.282C72.5001 169.334 72.5086 169.386 72.5164 169.439C72.5215 169.474 72.5276 169.508 72.5314 169.543C72.5407 169.633 72.5469 169.724 72.5469 169.816V169.866C72.5469 169.957 72.5405 170.047 72.5314 170.136C72.5287 170.162 72.5249 170.187 72.5215 170.212C72.5124 170.28 72.5009 170.347 72.4864 170.414C72.4819 170.436 72.4776 170.458 72.472 170.48C72.4291 170.656 72.3684 170.827 72.2913 170.991C72.2847 171.005 72.2777 171.018 72.271 171.032C72.2359 171.103 72.198 171.172 72.1568 171.24C72.1493 171.252 72.1423 171.264 72.1348 171.277C72.0382 171.432 71.9256 171.578 71.7998 171.714C71.7829 171.732 71.765 171.749 71.7474 171.767C71.7048 171.811 71.6604 171.854 71.6146 171.895C71.5855 171.922 71.5563 171.948 71.5261 171.974C71.4948 172 71.4618 172.026 71.4295 172.051C71.1442 172.274 70.8132 172.457 70.4429 172.587C70.4343 172.591 70.4271 172.595 70.4186 172.598C70.0445 172.727 69.6391 172.8 69.2142 172.8H51.565L57.5314 166.882H69.2147V166.882V166.882ZM44.7824 173.513C44.7818 173.514 44.7813 173.514 44.781 173.514L43.2724 175.011L35.0768 166.881H51.4692L44.7824 173.513ZM24.0223 166.882L29.9888 172.8H5.7076C3.86934 172.8 2.37438 171.484 2.37438 169.865V169.815C2.37438 168.198 3.86961 166.882 5.7076 166.882H24.0223V166.882ZM5.26423 162.659V159.814H69.8837V162.659H69.2147H56.6292H24.9254H5.7076H5.26423ZM127.3 81.4024V110.586H119.826V81.4024H127.3ZM103.719 81.4024V121.122H96.337V81.4024H103.719ZM72.7551 81.4024H80.2291V110.586H72.7551V81.4024ZM3.56028 142.448C2.54696 141.326 2.46642 137.687 2.72999 135.54C5.07424 123.602 22.8516 119.363 37.3849 119.363C51.4721 119.363 68.6595 123.508 71.3744 135.131C71.4174 135.317 71.4573 135.503 71.4929 135.691C71.9183 138.48 71.5245 140.579 71.0953 141.783C70.9607 142.161 70.8223 142.453 70.7051 142.648H69.3959H4.01784C3.80298 142.648 3.70023 142.603 3.56028 142.448ZM89.6636 118.827V112.708C89.6636 111.542 88.6974 110.597 87.5051 110.597H84.5462V79.2914V72.2226H92.0202V78.6818C91.9605 78.875 91.9281 79.0794 91.9281 79.2914V121.123H91.8455C90.6424 121.122 89.6636 120.093 89.6636 118.827ZM112.821 110.596C111.629 110.596 110.663 111.541 110.663 112.708V118.827C110.663 120.093 109.684 121.122 108.481 121.122H108.036V79.2914V72.2226H115.509V79.2914V110.596H112.821Z" fill="#202020"/>
</g>
<defs>
<filter id="filter0_i" x="264.472" y="171.64" width="135.967" height="22.982" filterUnits="userSpaceOnUse" color-interpolation-filters="sRGB">
<feFlood flood-opacity="0" result="BackgroundImageFix"/>
<feBlend mode="normal" in="SourceGraphic" in2="BackgroundImageFix" result="shape"/>
<feColorMatrix in="SourceAlpha" type="matrix" values="0 0 0 0 0 0 0 0 0 0 0 0 0 0 0 0 0 0 127 0" result="hardAlpha"/>
<feOffset dy="4"/>
<feGaussianBlur stdDeviation="2"/>
<feComposite in2="hardAlpha" operator="arithmetic" k2="-1" k3="1"/>
<feColorMatrix type="matrix" values="0 0 0 0 0 0 0 0 0 0 0 0 0 0 0 0 0 0 0.25 0"/>
<feBlend mode="normal" in2="shape" result="effect1_innerShadow"/>
</filter>
<filter id="filter1_i" x="151.28" y="117.72" width="284.667" height="71.936" filterUnits="userSpaceOnUse" color-interpolation-filters="sRGB">
<feFlood flood-opacity="0" result="BackgroundImageFix"/>
<feBlend mode="normal" in="SourceGraphic" in2="BackgroundImageFix" result="shape"/>
<feColorMatrix in="SourceAlpha" type="matrix" values="0 0 0 0 0 0 0 0 0 0 0 0 0 0 0 0 0 0 127 0" result="hardAlpha"/>
<feOffset dy="6"/>
<feGaussianBlur stdDeviation="3"/>
<feComposite in2="hardAlpha" operator="arithmetic" k2="-1" k3="1"/>
<feColorMatrix type="matrix" values="0 0 0 0 0 0 0 0 0 0 0 0 0 0 0 0 0 0 0.25 0"/>
<feBlend mode="normal" in2="shape" result="effect1_innerShadow"/>
</filter>
<clipPath id="clip0">
<rect width="137" height="134" fill="white" transform="translate(0 64)"/>
</clipPath>
</defs>
</svg>
