<svg width="610" height="512" viewBox="0 0 610 512" fill="none" xmlns="http://www.w3.org/2000/svg">
<g filter="url(#filter0_i)">
<path d="M266.972 186V172.14H268.448V175.56H275.432C276.02 175.56 276.53 175.776 276.962 176.208C277.394 176.628 277.61 177.138 277.61 177.738V186H276.134V177.738C276.134 177.546 276.062 177.384 275.918 177.252C275.786 177.108 275.624 177.036 275.432 177.036H269.168C268.976 177.036 268.808 177.108 268.664 177.252C268.52 177.384 268.448 177.546 268.448 177.738V186H266.972ZM281.225 186C280.625 186 280.109 185.79 279.677 185.37C279.257 184.938 279.047 184.422 279.047 183.822V180.042H288.191V177.738C288.191 177.546 288.119 177.384 287.975 177.252C287.843 177.108 287.681 177.036 287.489 177.036H279.047V175.56H287.489C288.101 175.56 288.617 175.776 289.037 176.208C289.469 176.628 289.685 177.138 289.685 177.738V186H281.225ZM281.225 184.524H288.191V181.518H280.523V183.822C280.523 184.014 280.589 184.182 280.721 184.326C280.865 184.458 281.033 184.524 281.225 184.524ZM291.23 186V175.56H305.018C305.63 175.56 306.146 175.776 306.566 176.208C306.986 176.628 307.196 177.138 307.196 177.738V186H305.738V177.738C305.738 177.546 305.666 177.384 305.522 177.252C305.378 177.108 305.21 177.036 305.018 177.036H300.68C300.488 177.036 300.32 177.108 300.176 177.252C300.044 177.384 299.978 177.546 299.978 177.738V186H298.484V177.738C298.484 177.546 298.412 177.384 298.268 177.252C298.136 177.108 297.974 177.036 297.782 177.036H293.426C293.234 177.036 293.066 177.108 292.922 177.252C292.79 177.384 292.724 177.546 292.724 177.738V186H291.23ZM308.826 186V172.14H310.302V175.56H317.286C317.886 175.56 318.396 175.776 318.816 176.208C319.248 176.628 319.464 177.138 319.464 177.738V183.822C319.464 184.422 319.248 184.938 318.816 185.37C318.396 185.79 317.886 186 317.286 186H308.826ZM311.022 184.524H317.286C317.478 184.524 317.64 184.458 317.772 184.326C317.916 184.182 317.988 184.014 317.988 183.822V177.738C317.988 177.546 317.916 177.384 317.772 177.252C317.64 177.108 317.478 177.036 317.286 177.036H311.022C310.83 177.036 310.662 177.108 310.518 177.252C310.374 177.384 310.302 177.546 310.302 177.738V183.822C310.302 184.014 310.374 184.182 310.518 184.326C310.662 184.458 310.83 184.524 311.022 184.524ZM322.991 186C322.391 186 321.875 185.79 321.443 185.37C321.023 184.938 320.813 184.422 320.813 183.822V175.56H322.289V183.822C322.289 184.014 322.355 184.182 322.487 184.326C322.631 184.458 322.799 184.524 322.991 184.524H329.255C329.447 184.524 329.615 184.458 329.759 184.326C329.903 184.182 329.975 184.014 329.975 183.822V175.56H331.451V183.822C331.451 184.422 331.235 184.938 330.803 185.37C330.383 185.79 329.867 186 329.255 186H322.991ZM333.311 186V177.738C333.311 177.138 333.521 176.628 333.941 176.208C334.373 175.776 334.889 175.56 335.489 175.56H341.357V177.036H335.489C335.297 177.036 335.129 177.108 334.985 177.252C334.853 177.384 334.787 177.546 334.787 177.738V186H333.311ZM344.25 190.122V188.628H350.766C350.958 188.628 351.12 188.556 351.252 188.412C351.396 188.28 351.468 188.118 351.468 187.926V186H344.502C343.902 186 343.386 185.79 342.954 185.37C342.534 184.938 342.324 184.422 342.324 183.822V177.738C342.324 177.138 342.534 176.628 342.954 176.208C343.386 175.776 343.902 175.56 344.502 175.56H350.766C351.378 175.56 351.894 175.776 352.314 176.208C352.734 176.628 352.944 177.138 352.944 177.738V187.926C352.944 188.538 352.734 189.054 352.314 189.474C351.894 189.906 351.378 190.122 350.766 190.122H344.25ZM344.502 184.524H350.766C350.958 184.524 351.12 184.458 351.252 184.326C351.396 184.182 351.468 184.014 351.468 183.822V177.738C351.468 177.546 351.396 177.384 351.252 177.252C351.12 177.108 350.958 177.036 350.766 177.036H344.502C344.31 177.036 344.142 177.108 343.998 177.252C343.866 177.384 343.8 177.546 343.8 177.738V183.822C343.8 184.014 343.866 184.182 343.998 184.326C344.142 184.458 344.31 184.524 344.502 184.524ZM356.548 186C355.948 186 355.432 185.79 355 185.37C354.58 184.938 354.37 184.422 354.37 183.822V175.56H355.846V183.822C355.846 184.014 355.912 184.182 356.044 184.326C356.188 184.458 356.356 184.524 356.548 184.524H362.812C363.004 184.524 363.172 184.458 363.316 184.326C363.46 184.182 363.532 184.014 363.532 183.822V175.56H365.008V183.822C365.008 184.422 364.792 184.938 364.36 185.37C363.94 185.79 363.424 186 362.812 186H356.548ZM368.764 186C368.164 186 367.648 185.79 367.216 185.37C366.796 184.938 366.586 184.422 366.586 183.822V177.738C366.586 177.138 366.796 176.628 367.216 176.208C367.648 175.776 368.164 175.56 368.764 175.56H375.028C375.64 175.56 376.156 175.776 376.576 176.208C377.008 176.628 377.224 177.138 377.224 177.738V181.518H368.062V183.822C368.062 184.014 368.128 184.182 368.26 184.326C368.404 184.458 368.572 184.524 368.764 184.524H377.224V186H368.764ZM368.062 180.042H375.73V177.738C375.73 177.546 375.658 177.384 375.514 177.252C375.382 177.108 375.22 177.036 375.028 177.036H368.764C368.572 177.036 368.404 177.108 368.26 177.252C368.128 177.384 368.062 177.546 368.062 177.738V180.042ZM378.979 186V177.738C378.979 177.138 379.189 176.628 379.609 176.208C380.041 175.776 380.557 175.56 381.157 175.56H387.025V177.036H381.157C380.965 177.036 380.797 177.108 380.653 177.252C380.521 177.384 380.455 177.546 380.455 177.738V186H378.979ZM388.19 186V175.56H389.666V186H388.19ZM388.19 173.616V172.14H389.666V173.616H388.19ZM393.479 186C392.879 186 392.363 185.79 391.931 185.37C391.511 184.938 391.301 184.422 391.301 183.822V180.042H400.445V177.738C400.445 177.546 400.373 177.384 400.229 177.252C400.097 177.108 399.935 177.036 399.743 177.036H391.301V175.56H399.743C400.355 175.56 400.871 175.776 401.291 176.208C401.723 176.628 401.939 177.138 401.939 177.738V186H393.479ZM393.479 184.524H400.445V181.518H392.777V183.822C392.777 184.014 392.843 184.182 392.975 184.326C393.119 184.458 393.287 184.524 393.479 184.524Z" fill="white"/>
</g>
<path d="M266.972 186H266.472V186.5H266.972V186ZM266.972 172.14V171.64H266.472V172.14H266.972ZM268.448 172.14H268.948V171.64H268.448V172.14ZM268.448 175.56H267.948V176.06H268.448V175.56ZM276.962 176.208L276.608 176.562L276.613 176.566L276.962 176.208ZM277.61 186V186.5H278.11V186H277.61ZM276.134 186H275.634V186.5H276.134V186ZM275.918 177.252L275.549 177.59L275.564 177.606L275.58 177.621L275.918 177.252ZM268.664 177.252L269.002 177.621L269.01 177.613L269.018 177.606L268.664 177.252ZM268.448 186V186.5H268.948V186H268.448ZM267.472 186V172.14H266.472V186H267.472ZM266.972 172.64H268.448V171.64H266.972V172.64ZM267.948 172.14V175.56H268.948V172.14H267.948ZM268.448 176.06H275.432V175.06H268.448V176.06ZM275.432 176.06C275.882 176.06 276.266 176.219 276.608 176.562L277.316 175.854C276.794 175.333 276.158 175.06 275.432 175.06V176.06ZM276.613 176.566C276.949 176.893 277.11 177.274 277.11 177.738H278.11C278.11 177.002 277.839 176.363 277.311 175.85L276.613 176.566ZM277.11 177.738V186H278.11V177.738H277.11ZM277.61 185.5H276.134V186.5H277.61V185.5ZM276.634 186V177.738H275.634V186H276.634ZM276.634 177.738C276.634 177.403 276.501 177.108 276.256 176.883L275.58 177.621C275.623 177.66 275.634 177.689 275.634 177.738H276.634ZM276.287 176.914C276.062 176.669 275.767 176.536 275.432 176.536V177.536C275.481 177.536 275.51 177.547 275.549 177.59L276.287 176.914ZM275.432 176.536H269.168V177.536H275.432V176.536ZM269.168 176.536C268.835 176.536 268.542 176.667 268.31 176.898L269.018 177.606C269.074 177.549 269.117 177.536 269.168 177.536V176.536ZM268.326 176.883C268.081 177.108 267.948 177.403 267.948 177.738H268.948C268.948 177.689 268.959 177.66 269.002 177.621L268.326 176.883ZM267.948 177.738V186H268.948V177.738H267.948ZM268.448 185.5H266.972V186.5H268.448V185.5ZM279.677 185.37L279.319 185.719L279.329 185.728L279.677 185.37ZM279.047 180.042V179.542H278.547V180.042H279.047ZM288.191 180.042V180.542H288.691V180.042H288.191ZM287.975 177.252L287.607 177.59L287.621 177.606L287.637 177.621L287.975 177.252ZM279.047 177.036H278.547V177.536H279.047V177.036ZM279.047 175.56V175.06H278.547V175.56H279.047ZM289.037 176.208L288.679 176.557L288.689 176.566L289.037 176.208ZM289.685 186V186.5H290.185V186H289.685ZM288.191 184.524V185.024H288.691V184.524H288.191ZM288.191 181.518H288.691V181.018H288.191V181.518ZM280.523 181.518V181.018H280.023V181.518H280.523ZM280.721 184.326L280.353 184.664L280.367 184.68L280.383 184.695L280.721 184.326ZM281.225 185.5C280.756 185.5 280.365 185.341 280.026 185.012L279.329 185.728C279.854 186.239 280.495 186.5 281.225 186.5V185.5ZM280.036 185.021C279.706 184.682 279.547 184.291 279.547 183.822H278.547C278.547 184.553 278.809 185.194 279.319 185.719L280.036 185.021ZM279.547 183.822V180.042H278.547V183.822H279.547ZM279.047 180.542H288.191V179.542H279.047V180.542ZM288.691 180.042V177.738H287.691V180.042H288.691ZM288.691 177.738C288.691 177.403 288.558 177.108 288.313 176.883L287.637 177.621C287.68 177.66 287.691 177.689 287.691 177.738H288.691ZM288.344 176.914C288.119 176.669 287.824 176.536 287.489 176.536V177.536C287.538 177.536 287.568 177.547 287.607 177.59L288.344 176.914ZM287.489 176.536H279.047V177.536H287.489V176.536ZM279.547 177.036V175.56H278.547V177.036H279.547ZM279.047 176.06H287.489V175.06H279.047V176.06ZM287.489 176.06C287.969 176.06 288.355 176.223 288.679 176.557L289.396 175.859C288.88 175.329 288.234 175.06 287.489 175.06V176.06ZM288.689 176.566C289.024 176.893 289.185 177.274 289.185 177.738H290.185C290.185 177.002 289.914 176.363 289.386 175.85L288.689 176.566ZM289.185 177.738V186H290.185V177.738H289.185ZM289.685 185.5H281.225V186.5H289.685V185.5ZM281.225 185.024H288.191V184.024H281.225V185.024ZM288.691 184.524V181.518H287.691V184.524H288.691ZM288.191 181.018H280.523V182.018H288.191V181.018ZM280.023 181.518V183.822H281.023V181.518H280.023ZM280.023 183.822C280.023 184.141 280.138 184.429 280.353 184.664L281.09 183.988C281.041 183.935 281.023 183.887 281.023 183.822H280.023ZM280.383 184.695C280.618 184.909 280.906 185.024 281.225 185.024V184.024C281.161 184.024 281.113 184.007 281.059 183.957L280.383 184.695ZM291.23 186H290.73V186.5H291.23V186ZM291.23 175.56V175.06H290.73V175.56H291.23ZM306.566 176.208L306.207 176.557L306.212 176.562L306.566 176.208ZM307.196 186V186.5H307.696V186H307.196ZM305.738 186H305.238V186.5H305.738V186ZM305.522 177.252L305.168 177.606L305.176 177.613L305.184 177.621L305.522 177.252ZM300.176 177.252L299.822 176.898L300.176 177.252ZM299.978 186V186.5H300.478V186H299.978ZM298.484 186H297.984V186.5H298.484V186ZM298.268 177.252L297.899 177.59L297.914 177.606L297.93 177.621L298.268 177.252ZM292.922 177.252L292.568 176.898L292.922 177.252ZM292.724 186V186.5H293.224V186H292.724ZM291.73 186V175.56H290.73V186H291.73ZM291.23 176.06H305.018V175.06H291.23V176.06ZM305.018 176.06C305.497 176.06 305.883 176.223 306.207 176.557L306.924 175.859C306.409 175.329 305.762 175.06 305.018 175.06V176.06ZM306.212 176.562C306.537 176.887 306.696 177.269 306.696 177.738H307.696C307.696 177.007 307.434 176.369 306.919 175.854L306.212 176.562ZM306.696 177.738V186H307.696V177.738H306.696ZM307.196 185.5H305.738V186.5H307.196V185.5ZM306.238 186V177.738H305.238V186H306.238ZM306.238 177.738C306.238 177.403 306.105 177.108 305.86 176.883L305.184 177.621C305.227 177.66 305.238 177.689 305.238 177.738H306.238ZM305.875 176.898C305.644 176.667 305.351 176.536 305.018 176.536V177.536C305.069 177.536 305.112 177.549 305.168 177.606L305.875 176.898ZM305.018 176.536H300.68V177.536H305.018V176.536ZM300.68 176.536C300.347 176.536 300.054 176.667 299.822 176.898L300.529 177.606C300.586 177.549 300.629 177.536 300.68 177.536V176.536ZM299.822 176.898C299.594 177.127 299.478 177.418 299.478 177.738H300.478C300.478 177.674 300.494 177.641 300.529 177.606L299.822 176.898ZM299.478 177.738V186H300.478V177.738H299.478ZM299.978 185.5H298.484V186.5H299.978V185.5ZM298.984 186V177.738H297.984V186H298.984ZM298.984 177.738C298.984 177.403 298.851 177.108 298.606 176.883L297.93 177.621C297.973 177.66 297.984 177.689 297.984 177.738H298.984ZM298.636 176.914C298.412 176.669 298.117 176.536 297.782 176.536V177.536C297.831 177.536 297.86 177.547 297.899 177.59L298.636 176.914ZM297.782 176.536H293.426V177.536H297.782V176.536ZM293.426 176.536C293.093 176.536 292.8 176.667 292.568 176.898L293.275 177.606C293.332 177.549 293.375 177.536 293.426 177.536V176.536ZM292.568 176.898C292.34 177.127 292.224 177.418 292.224 177.738H293.224C293.224 177.674 293.24 177.641 293.275 177.606L292.568 176.898ZM292.224 177.738V186H293.224V177.738H292.224ZM292.724 185.5H291.23V186.5H292.724V185.5ZM308.826 186H308.326V186.5H308.826V186ZM308.826 172.14V171.64H308.326V172.14H308.826ZM310.302 172.14H310.802V171.64H310.302V172.14ZM310.302 175.56H309.802V176.06H310.302V175.56ZM318.816 176.208L318.457 176.557L318.467 176.566L318.816 176.208ZM318.816 185.37L319.169 185.724L318.816 185.37ZM317.772 184.326L317.418 183.972L317.772 184.326ZM317.772 177.252L317.403 177.59L317.418 177.606L317.434 177.621L317.772 177.252ZM310.518 177.252L310.855 177.621L310.863 177.613L310.871 177.606L310.518 177.252ZM310.518 184.326L310.164 184.68L310.172 184.687L310.18 184.695L310.518 184.326ZM309.326 186V172.14H308.326V186H309.326ZM308.826 172.64H310.302V171.64H308.826V172.64ZM309.802 172.14V175.56H310.802V172.14H309.802ZM310.302 176.06H317.286V175.06H310.302V176.06ZM317.286 176.06C317.75 176.06 318.131 176.221 318.457 176.557L319.174 175.859C318.66 175.331 318.021 175.06 317.286 175.06V176.06ZM318.467 176.566C318.803 176.893 318.964 177.274 318.964 177.738H319.964C319.964 177.002 319.692 176.363 319.164 175.85L318.467 176.566ZM318.964 177.738V183.822H319.964V177.738H318.964ZM318.964 183.822C318.964 184.287 318.802 184.676 318.462 185.016L319.169 185.724C319.693 185.2 319.964 184.557 319.964 183.822H318.964ZM318.462 185.016C318.137 185.342 317.754 185.5 317.286 185.5V186.5C318.017 186.5 318.654 186.238 319.169 185.724L318.462 185.016ZM317.286 185.5H308.826V186.5H317.286V185.5ZM311.022 185.024H317.286V184.024H311.022V185.024ZM317.286 185.024C317.606 185.024 317.896 184.908 318.125 184.68L317.418 183.972C317.383 184.008 317.349 184.024 317.286 184.024V185.024ZM318.125 184.68C318.357 184.448 318.488 184.155 318.488 183.822H317.488C317.488 183.873 317.475 183.916 317.418 183.972L318.125 184.68ZM318.488 183.822V177.738H317.488V183.822H318.488ZM318.488 177.738C318.488 177.403 318.355 177.108 318.109 176.883L317.434 177.621C317.476 177.66 317.488 177.689 317.488 177.738H318.488ZM318.14 176.914C317.915 176.669 317.62 176.536 317.286 176.536V177.536C317.335 177.536 317.364 177.547 317.403 177.59L318.14 176.914ZM317.286 176.536H311.022V177.536H317.286V176.536ZM311.022 176.536C310.688 176.536 310.395 176.667 310.164 176.898L310.871 177.606C310.928 177.549 310.971 177.536 311.022 177.536V176.536ZM310.18 176.883C309.934 177.108 309.802 177.403 309.802 177.738H310.802C310.802 177.689 310.813 177.66 310.855 177.621L310.18 176.883ZM309.802 177.738V183.822H310.802V177.738H309.802ZM309.802 183.822C309.802 184.155 309.933 184.448 310.164 184.68L310.871 183.972C310.815 183.916 310.802 183.873 310.802 183.822H309.802ZM310.18 184.695C310.414 184.909 310.702 185.024 311.022 185.024V184.024C310.957 184.024 310.909 184.007 310.855 183.957L310.18 184.695ZM321.443 185.37L321.085 185.719L321.095 185.728L321.443 185.37ZM320.813 175.56V175.06H320.313V175.56H320.813ZM322.289 175.56H322.789V175.06H322.289V175.56ZM322.487 184.326L322.119 184.664L322.133 184.68L322.15 184.695L322.487 184.326ZM329.759 184.326L330.097 184.695L330.105 184.687L330.113 184.68L329.759 184.326ZM329.975 175.56V175.06H329.475V175.56H329.975ZM331.451 175.56H331.951V175.06H331.451V175.56ZM330.803 185.37L331.157 185.724L330.803 185.37ZM322.991 185.5C322.522 185.5 322.131 185.341 321.792 185.012L321.095 185.728C321.62 186.239 322.261 186.5 322.991 186.5V185.5ZM321.802 185.021C321.472 184.682 321.313 184.291 321.313 183.822H320.313C320.313 184.553 320.575 185.194 321.085 185.719L321.802 185.021ZM321.313 183.822V175.56H320.313V183.822H321.313ZM320.813 176.06H322.289V175.06H320.813V176.06ZM321.789 175.56V183.822H322.789V175.56H321.789ZM321.789 183.822C321.789 184.141 321.904 184.429 322.119 184.664L322.856 183.988C322.807 183.935 322.789 183.887 322.789 183.822H321.789ZM322.15 184.695C322.384 184.909 322.672 185.024 322.991 185.024V184.024C322.927 184.024 322.879 184.007 322.825 183.957L322.15 184.695ZM322.991 185.024H329.255V184.024H322.991V185.024ZM329.255 185.024C329.575 185.024 329.863 184.909 330.097 184.695L329.422 183.957C329.368 184.007 329.32 184.024 329.255 184.024V185.024ZM330.113 184.68C330.344 184.448 330.475 184.155 330.475 183.822H329.475C329.475 183.873 329.462 183.916 329.406 183.972L330.113 184.68ZM330.475 183.822V175.56H329.475V183.822H330.475ZM329.975 176.06H331.451V175.06H329.975V176.06ZM330.951 175.56V183.822H331.951V175.56H330.951ZM330.951 183.822C330.951 184.287 330.79 184.676 330.45 185.016L331.157 185.724C331.681 185.2 331.951 184.557 331.951 183.822H330.951ZM330.45 185.016C330.127 185.34 329.739 185.5 329.255 185.5V186.5C329.995 186.5 330.64 186.24 331.157 185.724L330.45 185.016ZM329.255 185.5H322.991V186.5H329.255V185.5ZM333.311 186H332.811V186.5H333.311V186ZM333.941 176.208L333.587 175.854L333.941 176.208ZM341.357 175.56H341.857V175.06H341.357V175.56ZM341.357 177.036V177.536H341.857V177.036H341.357ZM334.787 186V186.5H335.287V186H334.787ZM333.811 186V177.738H332.811V186H333.811ZM333.811 177.738C333.811 177.269 333.969 176.887 334.295 176.562L333.587 175.854C333.073 176.369 332.811 177.007 332.811 177.738H333.811ZM334.295 176.562C334.635 176.221 335.024 176.06 335.489 176.06V175.06C334.754 175.06 334.111 175.331 333.587 175.854L334.295 176.562ZM335.489 176.06H341.357V175.06H335.489V176.06ZM340.857 175.56V177.036H341.857V175.56H340.857ZM341.357 176.536H335.489V177.536H341.357V176.536ZM335.489 176.536C335.156 176.536 334.863 176.667 334.631 176.898L335.339 177.606C335.395 177.549 335.438 177.536 335.489 177.536V176.536ZM334.631 176.898C334.403 177.127 334.287 177.418 334.287 177.738H335.287C335.287 177.674 335.303 177.641 335.339 177.606L334.631 176.898ZM334.287 177.738V186H335.287V177.738H334.287ZM334.787 185.5H333.311V186.5H334.787V185.5ZM344.25 190.122H343.75V190.622H344.25V190.122ZM344.25 188.628V188.128H343.75V188.628H344.25ZM351.252 188.412L350.914 188.043L350.898 188.058L350.883 188.074L351.252 188.412ZM351.468 186H351.968V185.5H351.468V186ZM342.954 185.37L342.595 185.719L342.605 185.728L342.954 185.37ZM342.954 176.208L342.6 175.854L342.954 176.208ZM352.314 176.208L351.955 176.557L351.96 176.562L352.314 176.208ZM352.314 189.474L351.96 189.12L351.955 189.125L352.314 189.474ZM351.252 184.326L350.898 183.972L351.252 184.326ZM351.252 177.252L350.883 177.59L350.898 177.606L350.914 177.621L351.252 177.252ZM343.998 177.252L343.644 176.898L343.998 177.252ZM343.998 184.326L343.629 184.664L343.644 184.68L343.66 184.695L343.998 184.326ZM344.75 190.122V188.628H343.75V190.122H344.75ZM344.25 189.128H350.766V188.128H344.25V189.128ZM350.766 189.128C351.101 189.128 351.396 188.995 351.621 188.75L350.883 188.074C350.844 188.117 350.815 188.128 350.766 188.128V189.128ZM351.59 188.781C351.835 188.556 351.968 188.261 351.968 187.926H350.968C350.968 187.975 350.957 188.004 350.914 188.043L351.59 188.781ZM351.968 187.926V186H350.968V187.926H351.968ZM351.468 185.5H344.502V186.5H351.468V185.5ZM344.502 185.5C344.033 185.5 343.642 185.341 343.302 185.012L342.605 185.728C343.13 186.239 343.771 186.5 344.502 186.5V185.5ZM343.312 185.021C342.983 184.682 342.824 184.291 342.824 183.822H341.824C341.824 184.553 342.085 185.194 342.595 185.719L343.312 185.021ZM342.824 183.822V177.738H341.824V183.822H342.824ZM342.824 177.738C342.824 177.269 342.982 176.887 343.307 176.562L342.6 175.854C342.086 176.369 341.824 177.007 341.824 177.738H342.824ZM343.307 176.562C343.648 176.221 344.037 176.06 344.502 176.06V175.06C343.767 175.06 343.124 175.331 342.6 175.854L343.307 176.562ZM344.502 176.06H350.766V175.06H344.502V176.06ZM350.766 176.06C351.245 176.06 351.631 176.223 351.955 176.557L352.672 175.859C352.157 175.329 351.511 175.06 350.766 175.06V176.06ZM351.96 176.562C352.286 176.887 352.444 177.269 352.444 177.738H353.444C353.444 177.007 353.182 176.369 352.667 175.854L351.96 176.562ZM352.444 177.738V187.926H353.444V177.738H352.444ZM352.444 187.926C352.444 188.41 352.283 188.797 351.96 189.12L352.667 189.828C353.184 189.311 353.444 188.666 353.444 187.926H352.444ZM351.955 189.125C351.631 189.459 351.245 189.622 350.766 189.622V190.622C351.511 190.622 352.157 190.353 352.672 189.823L351.955 189.125ZM350.766 189.622H344.25V190.622H350.766V189.622ZM344.502 185.024H350.766V184.024H344.502V185.024ZM350.766 185.024C351.086 185.024 351.377 184.908 351.605 184.68L350.898 183.972C350.863 184.008 350.83 184.024 350.766 184.024V185.024ZM351.605 184.68C351.837 184.448 351.968 184.155 351.968 183.822H350.968C350.968 183.873 350.955 183.916 350.898 183.972L351.605 184.68ZM351.968 183.822V177.738H350.968V183.822H351.968ZM351.968 177.738C351.968 177.403 351.835 177.108 351.59 176.883L350.914 177.621C350.957 177.66 350.968 177.689 350.968 177.738H351.968ZM351.621 176.914C351.396 176.669 351.101 176.536 350.766 176.536V177.536C350.815 177.536 350.844 177.547 350.883 177.59L351.621 176.914ZM350.766 176.536H344.502V177.536H350.766V176.536ZM344.502 176.536C344.169 176.536 343.876 176.667 343.644 176.898L344.351 177.606C344.408 177.549 344.451 177.536 344.502 177.536V176.536ZM343.644 176.898C343.416 177.127 343.3 177.418 343.3 177.738H344.3C344.3 177.674 344.316 177.641 344.351 177.606L343.644 176.898ZM343.3 177.738V183.822H344.3V177.738H343.3ZM343.3 183.822C343.3 184.141 343.414 184.429 343.629 184.664L344.367 183.988C344.317 183.935 344.3 183.887 344.3 183.822H343.3ZM343.66 184.695C343.895 184.909 344.182 185.024 344.502 185.024V184.024C344.437 184.024 344.389 184.007 344.336 183.957L343.66 184.695ZM355 185.37L354.641 185.719L354.651 185.728L355 185.37ZM354.37 175.56V175.06H353.87V175.56H354.37ZM355.846 175.56H356.346V175.06H355.846V175.56ZM356.044 184.326L355.675 184.664L355.69 184.68L355.706 184.695L356.044 184.326ZM363.316 184.326L363.654 184.695L363.662 184.687L363.67 184.68L363.316 184.326ZM363.532 175.56V175.06H363.032V175.56H363.532ZM365.008 175.56H365.508V175.06H365.008V175.56ZM364.36 185.37L364.714 185.724L364.36 185.37ZM356.548 185.5C356.079 185.5 355.688 185.341 355.349 185.012L354.651 185.728C355.176 186.239 355.817 186.5 356.548 186.5V185.5ZM355.359 185.021C355.029 184.682 354.87 184.291 354.87 183.822H353.87C353.87 184.553 354.131 185.194 354.642 185.719L355.359 185.021ZM354.87 183.822V175.56H353.87V183.822H354.87ZM354.37 176.06H355.846V175.06H354.37V176.06ZM355.346 175.56V183.822H356.346V175.56H355.346ZM355.346 183.822C355.346 184.141 355.461 184.429 355.675 184.664L356.413 183.988C356.363 183.935 356.346 183.887 356.346 183.822H355.346ZM355.706 184.695C355.941 184.909 356.229 185.024 356.548 185.024V184.024C356.484 184.024 356.435 184.007 356.382 183.957L355.706 184.695ZM356.548 185.024H362.812V184.024H356.548V185.024ZM362.812 185.024C363.132 185.024 363.419 184.909 363.654 184.695L362.978 183.957C362.925 184.007 362.877 184.024 362.812 184.024V185.024ZM363.67 184.68C363.901 184.448 364.032 184.155 364.032 183.822H363.032C363.032 183.873 363.019 183.916 362.962 183.972L363.67 184.68ZM364.032 183.822V175.56H363.032V183.822H364.032ZM363.532 176.06H365.008V175.06H363.532V176.06ZM364.508 175.56V183.822H365.508V175.56H364.508ZM364.508 183.822C364.508 184.287 364.347 184.676 364.006 185.016L364.714 185.724C365.237 185.2 365.508 184.557 365.508 183.822H364.508ZM364.006 185.016C363.683 185.34 363.296 185.5 362.812 185.5V186.5C363.552 186.5 364.197 186.24 364.714 185.724L364.006 185.016ZM362.812 185.5H356.548V186.5H362.812V185.5ZM367.216 185.37L366.857 185.719L366.867 185.728L367.216 185.37ZM367.216 176.208L366.862 175.854L367.216 176.208ZM376.576 176.208L376.217 176.557L376.227 176.566L376.576 176.208ZM377.224 181.518V182.018H377.724V181.518H377.224ZM368.062 181.518V181.018H367.562V181.518H368.062ZM368.26 184.326L367.891 184.664L367.906 184.68L367.922 184.695L368.26 184.326ZM377.224 184.524H377.724V184.024H377.224V184.524ZM377.224 186V186.5H377.724V186H377.224ZM368.062 180.042H367.562V180.542H368.062V180.042ZM375.73 180.042V180.542H376.23V180.042H375.73ZM375.514 177.252L375.145 177.59L375.16 177.606L375.176 177.621L375.514 177.252ZM368.764 185.5C368.295 185.5 367.904 185.341 367.565 185.012L366.867 185.728C367.392 186.239 368.033 186.5 368.764 186.5V185.5ZM367.574 185.021C367.245 184.682 367.086 184.291 367.086 183.822H366.086C366.086 184.553 366.347 185.194 366.857 185.719L367.574 185.021ZM367.086 183.822V177.738H366.086V183.822H367.086ZM367.086 177.738C367.086 177.269 367.244 176.887 367.57 176.562L366.862 175.854C366.348 176.369 366.086 177.007 366.086 177.738H367.086ZM367.57 176.562C367.91 176.221 368.299 176.06 368.764 176.06V175.06C368.029 175.06 367.386 175.331 366.862 175.854L367.57 176.562ZM368.764 176.06H375.028V175.06H368.764V176.06ZM375.028 176.06C375.507 176.06 375.893 176.223 376.217 176.557L376.934 175.859C376.419 175.329 375.773 175.06 375.028 175.06V176.06ZM376.227 176.566C376.563 176.893 376.724 177.274 376.724 177.738H377.724C377.724 177.002 377.453 176.363 376.925 175.85L376.227 176.566ZM376.724 177.738V181.518H377.724V177.738H376.724ZM377.224 181.018H368.062V182.018H377.224V181.018ZM367.562 181.518V183.822H368.562V181.518H367.562ZM367.562 183.822C367.562 184.141 367.676 184.429 367.891 184.664L368.629 183.988C368.579 183.935 368.562 183.887 368.562 183.822H367.562ZM367.922 184.695C368.157 184.909 368.444 185.024 368.764 185.024V184.024C368.699 184.024 368.651 184.007 368.598 183.957L367.922 184.695ZM368.764 185.024H377.224V184.024H368.764V185.024ZM376.724 184.524V186H377.724V184.524H376.724ZM377.224 185.5H368.764V186.5H377.224V185.5ZM368.062 180.542H375.73V179.542H368.062V180.542ZM376.23 180.042V177.738H375.23V180.042H376.23ZM376.23 177.738C376.23 177.403 376.097 177.108 375.852 176.883L375.176 177.621C375.219 177.66 375.23 177.689 375.23 177.738H376.23ZM375.883 176.914C375.658 176.669 375.363 176.536 375.028 176.536V177.536C375.077 177.536 375.106 177.547 375.145 177.59L375.883 176.914ZM375.028 176.536H368.764V177.536H375.028V176.536ZM368.764 176.536C368.431 176.536 368.138 176.667 367.906 176.898L368.614 177.606C368.67 177.549 368.713 177.536 368.764 177.536V176.536ZM367.906 176.898C367.678 177.127 367.562 177.418 367.562 177.738H368.562C368.562 177.674 368.578 177.641 368.614 177.606L367.906 176.898ZM367.562 177.738V180.042H368.562V177.738H367.562ZM378.979 186H378.479V186.5H378.979V186ZM379.609 176.208L379.255 175.854L379.609 176.208ZM387.025 175.56H387.525V175.06H387.025V175.56ZM387.025 177.036V177.536H387.525V177.036H387.025ZM380.455 186V186.5H380.955V186H380.455ZM379.479 186V177.738H378.479V186H379.479ZM379.479 177.738C379.479 177.269 379.637 176.887 379.963 176.562L379.255 175.854C378.741 176.369 378.479 177.007 378.479 177.738H379.479ZM379.963 176.562C380.303 176.221 380.692 176.06 381.157 176.06V175.06C380.422 175.06 379.779 175.331 379.255 175.854L379.963 176.562ZM381.157 176.06H387.025V175.06H381.157V176.06ZM386.525 175.56V177.036H387.525V175.56H386.525ZM387.025 176.536H381.157V177.536H387.025V176.536ZM381.157 176.536C380.824 176.536 380.531 176.667 380.299 176.898L381.007 177.606C381.063 177.549 381.106 177.536 381.157 177.536V176.536ZM380.299 176.898C380.071 177.127 379.955 177.418 379.955 177.738H380.955C380.955 177.674 380.971 177.641 381.007 177.606L380.299 176.898ZM379.955 177.738V186H380.955V177.738H379.955ZM380.455 185.5H378.979V186.5H380.455V185.5ZM388.19 186H387.69V186.5H388.19V186ZM388.19 175.56V175.06H387.69V175.56H388.19ZM389.666 175.56H390.166V175.06H389.666V175.56ZM389.666 186V186.5H390.166V186H389.666ZM388.19 173.616H387.69V174.116H388.19V173.616ZM388.19 172.14V171.64H387.69V172.14H388.19ZM389.666 172.14H390.166V171.64H389.666V172.14ZM389.666 173.616V174.116H390.166V173.616H389.666ZM388.69 186V175.56H387.69V186H388.69ZM388.19 176.06H389.666V175.06H388.19V176.06ZM389.166 175.56V186H390.166V175.56H389.166ZM389.666 185.5H388.19V186.5H389.666V185.5ZM388.69 173.616V172.14H387.69V173.616H388.69ZM388.19 172.64H389.666V171.64H388.19V172.64ZM389.166 172.14V173.616H390.166V172.14H389.166ZM389.666 173.116H388.19V174.116H389.666V173.116ZM391.931 185.37L391.573 185.719L391.583 185.728L391.931 185.37ZM391.301 180.042V179.542H390.801V180.042H391.301ZM400.445 180.042V180.542H400.945V180.042H400.445ZM400.229 177.252L399.861 177.59L399.875 177.606L399.891 177.621L400.229 177.252ZM391.301 177.036H390.801V177.536H391.301V177.036ZM391.301 175.56V175.06H390.801V175.56H391.301ZM401.291 176.208L400.933 176.557L400.943 176.566L401.291 176.208ZM401.939 186V186.5H402.439V186H401.939ZM400.445 184.524V185.024H400.945V184.524H400.445ZM400.445 181.518H400.945V181.018H400.445V181.518ZM392.777 181.518V181.018H392.277V181.518H392.777ZM392.975 184.326L392.607 184.664L392.621 184.68L392.637 184.695L392.975 184.326ZM393.479 185.5C393.01 185.5 392.619 185.341 392.28 185.012L391.583 185.728C392.108 186.239 392.748 186.5 393.479 186.5V185.5ZM392.29 185.021C391.96 184.682 391.801 184.291 391.801 183.822H390.801C390.801 184.553 391.062 185.194 391.573 185.719L392.29 185.021ZM391.801 183.822V180.042H390.801V183.822H391.801ZM391.301 180.542H400.445V179.542H391.301V180.542ZM400.945 180.042V177.738H399.945V180.042H400.945ZM400.945 177.738C400.945 177.403 400.812 177.108 400.567 176.883L399.891 177.621C399.934 177.66 399.945 177.689 399.945 177.738H400.945ZM400.598 176.914C400.373 176.669 400.078 176.536 399.743 176.536V177.536C399.792 177.536 399.821 177.547 399.861 177.59L400.598 176.914ZM399.743 176.536H391.301V177.536H399.743V176.536ZM391.801 177.036V175.56H390.801V177.036H391.801ZM391.301 176.06H399.743V175.06H391.301V176.06ZM399.743 176.06C400.223 176.06 400.609 176.223 400.933 176.557L401.65 175.859C401.134 175.329 400.488 175.06 399.743 175.06V176.06ZM400.943 176.566C401.278 176.893 401.439 177.274 401.439 177.738H402.439C402.439 177.002 402.168 176.363 401.64 175.85L400.943 176.566ZM401.439 177.738V186H402.439V177.738H401.439ZM401.939 185.5H393.479V186.5H401.939V185.5ZM393.479 185.024H400.445V184.024H393.479V185.024ZM400.945 184.524V181.518H399.945V184.524H400.945ZM400.445 181.018H392.777V182.018H400.445V181.018ZM392.277 181.518V183.822H393.277V181.518H392.277ZM392.277 183.822C392.277 184.141 392.392 184.429 392.607 184.664L393.344 183.988C393.295 183.935 393.277 183.887 393.277 183.822H392.277ZM392.637 184.695C392.872 184.909 393.16 185.024 393.479 185.024V184.024C393.415 184.024 393.367 184.007 393.313 183.957L392.637 184.695Z" fill="#E95353"/>
<g filter="url(#filter1_i)">
<path d="M174.76 168V127.104H154.28V121.92H200.36V127.104H179.944V168H174.76ZM205.019 168V118.72H210.267V130.88H235.099C237.189 130.88 239.003 131.648 240.539 133.184C242.075 134.677 242.843 136.491 242.843 138.624V168H237.595V138.624C237.595 137.941 237.339 137.365 236.826 136.896C236.357 136.384 235.781 136.128 235.099 136.128H212.827C212.144 136.128 211.547 136.384 211.035 136.896C210.523 137.365 210.267 137.941 210.267 138.624V168H205.019ZM255.321 168C253.187 168 251.353 167.253 249.817 165.76C248.323 164.224 247.577 162.389 247.577 160.256V138.624C247.577 136.491 248.323 134.677 249.817 133.184C251.353 131.648 253.187 130.88 255.321 130.88H277.593C279.769 130.88 281.603 131.648 283.097 133.184C284.633 134.677 285.401 136.491 285.401 138.624V152.064H252.825V160.256C252.825 160.939 253.059 161.536 253.529 162.048C254.041 162.517 254.638 162.752 255.321 162.752H285.401V168H255.321ZM252.825 146.816H280.089V138.624C280.089 137.941 279.833 137.365 279.321 136.896C278.851 136.384 278.275 136.128 277.593 136.128H255.321C254.638 136.128 254.041 136.384 253.529 136.896C253.059 137.365 252.825 137.941 252.825 138.624V146.816ZM292.273 168V121.92H297.521V142.336H312.369L329.521 121.92H336.177V121.984L316.913 144.96L336.241 167.936V168H329.521L312.369 147.584H297.521V168H292.273ZM342.953 168V130.88H348.201V168H342.953ZM342.953 123.968V118.72H348.201V123.968H342.953ZM355.456 168V130.88H385.536C387.669 130.88 389.483 131.648 390.976 133.184C392.512 134.677 393.28 136.491 393.28 138.624V168H388.032V138.624C388.032 137.941 387.776 137.365 387.264 136.896C386.795 136.384 386.219 136.128 385.536 136.128H363.264C362.581 136.128 361.984 136.384 361.472 136.896C360.96 137.365 360.704 137.941 360.704 138.624V168H355.456ZM406.035 182.656V177.344H429.203C429.885 177.344 430.461 177.088 430.931 176.576C431.443 176.107 431.699 175.531 431.699 174.848V168H406.931C404.797 168 402.963 167.253 401.427 165.76C399.933 164.224 399.187 162.389 399.187 160.256V138.624C399.187 136.491 399.933 134.677 401.427 133.184C402.963 131.648 404.797 130.88 406.931 130.88H429.203C431.379 130.88 433.213 131.648 434.707 133.184C436.2 134.677 436.947 136.491 436.947 138.624V174.848C436.947 177.024 436.2 178.859 434.707 180.352C433.213 181.888 431.379 182.656 429.203 182.656H406.035ZM406.931 162.752H429.203C429.885 162.752 430.461 162.517 430.931 162.048C431.443 161.536 431.699 160.939 431.699 160.256V138.624C431.699 137.941 431.443 137.365 430.931 136.896C430.461 136.384 429.885 136.128 429.203 136.128H406.931C406.248 136.128 405.651 136.384 405.139 136.896C404.669 137.365 404.435 137.941 404.435 138.624V160.256C404.435 160.939 404.669 161.536 405.139 162.048C405.651 162.517 406.248 162.752 406.931 162.752Z" fill="#E95353"/>
</g>
<path d="M174.76 168H173.76V169H174.76V168ZM174.76 127.104H175.76V126.104H174.76V127.104ZM154.28 127.104H153.28V128.104H154.28V127.104ZM154.28 121.92V120.92H153.28V121.92H154.28ZM200.36 121.92H201.36V120.92H200.36V121.92ZM200.36 127.104V128.104H201.36V127.104H200.36ZM179.944 127.104V126.104H178.944V127.104H179.944ZM179.944 168V169H180.944V168H179.944ZM175.76 168V127.104H173.76V168H175.76ZM174.76 126.104H154.28V128.104H174.76V126.104ZM155.28 127.104V121.92H153.28V127.104H155.28ZM154.28 122.92H200.36V120.92H154.28V122.92ZM199.36 121.92V127.104H201.36V121.92H199.36ZM200.36 126.104H179.944V128.104H200.36V126.104ZM178.944 127.104V168H180.944V127.104H178.944ZM179.944 167H174.76V169H179.944V167ZM205.019 168H204.019V169H205.019V168ZM205.019 118.72V117.72H204.019V118.72H205.019ZM210.267 118.72H211.267V117.72H210.267V118.72ZM210.267 130.88H209.267V131.88H210.267V130.88ZM240.539 133.184L239.831 133.891L239.841 133.901L240.539 133.184ZM242.843 168V169H243.843V168H242.843ZM237.595 168H236.595V169H237.595V168ZM236.826 136.896L236.089 137.572L236.119 137.604L236.151 137.633L236.826 136.896ZM211.035 136.896L211.71 137.633L211.726 137.618L211.742 137.603L211.035 136.896ZM210.267 168V169H211.267V168H210.267ZM206.019 168V118.72H204.019V168H206.019ZM205.019 119.72H210.267V117.72H205.019V119.72ZM209.267 118.72V130.88H211.267V118.72H209.267ZM210.267 131.88H235.099V129.88H210.267V131.88ZM235.099 131.88C236.913 131.88 238.475 132.534 239.831 133.891L241.246 132.477C239.53 130.762 237.466 129.88 235.099 129.88V131.88ZM239.841 133.901C241.185 135.207 241.843 136.762 241.843 138.624H243.843C243.843 136.219 242.964 134.148 241.236 132.467L239.841 133.901ZM241.843 138.624V168H243.843V138.624H241.843ZM242.843 167H237.595V169H242.843V167ZM238.595 168V138.624H236.595V168H238.595ZM238.595 138.624C238.595 137.656 238.217 136.814 237.502 136.159L236.151 137.633C236.46 137.917 236.595 138.227 236.595 138.624H238.595ZM237.564 136.22C236.909 135.506 236.067 135.128 235.099 135.128V137.128C235.495 137.128 235.806 137.262 236.089 137.572L237.564 136.22ZM235.099 135.128H212.827V137.128H235.099V135.128ZM212.827 135.128C211.861 135.128 211.014 135.502 210.327 136.189L211.742 137.603C212.079 137.266 212.426 137.128 212.827 137.128V135.128ZM210.359 136.159C209.644 136.814 209.267 137.656 209.267 138.624H211.267C211.267 138.227 211.401 137.917 211.71 137.633L210.359 136.159ZM209.267 138.624V168H211.267V138.624H209.267ZM210.267 167H205.019V169H210.267V167ZM249.817 165.76L249.1 166.457L249.109 166.467L249.119 166.477L249.817 165.76ZM249.817 133.184L249.109 132.477L249.817 133.184ZM283.097 133.184L282.38 133.881L282.389 133.891L282.399 133.901L283.097 133.184ZM285.401 152.064V153.064H286.401V152.064H285.401ZM252.825 152.064V151.064H251.825V152.064H252.825ZM253.529 162.048L252.791 162.724L252.821 162.756L252.853 162.785L253.529 162.048ZM285.401 162.752H286.401V161.752H285.401V162.752ZM285.401 168V169H286.401V168H285.401ZM252.825 146.816H251.825V147.816H252.825V146.816ZM280.089 146.816V147.816H281.089V146.816H280.089ZM279.321 136.896L278.583 137.572L278.613 137.604L278.645 137.633L279.321 136.896ZM253.529 136.896L254.236 137.603L253.529 136.896ZM255.321 167C253.449 167 251.864 166.356 250.514 165.043L249.119 166.477C250.841 168.151 252.926 169 255.321 169V167ZM250.533 165.063C249.221 163.713 248.577 162.128 248.577 160.256H246.577C246.577 162.651 247.426 164.735 249.1 166.457L250.533 165.063ZM248.577 160.256V138.624H246.577V160.256H248.577ZM248.577 138.624C248.577 136.753 249.22 135.195 250.524 133.891L249.109 132.477C247.426 134.16 246.577 136.228 246.577 138.624H248.577ZM250.524 133.891C251.876 132.539 253.458 131.88 255.321 131.88V129.88C252.917 129.88 250.829 130.757 249.109 132.477L250.524 133.891ZM255.321 131.88H277.593V129.88H255.321V131.88ZM277.593 131.88C279.503 131.88 281.078 132.542 282.38 133.881L283.813 132.487C282.129 130.754 280.034 129.88 277.593 129.88V131.88ZM282.399 133.901C283.743 135.207 284.401 136.762 284.401 138.624H286.401C286.401 136.219 285.522 134.148 283.794 132.467L282.399 133.901ZM284.401 138.624V152.064H286.401V138.624H284.401ZM285.401 151.064H252.825V153.064H285.401V151.064ZM251.825 152.064V160.256H253.825V152.064H251.825ZM251.825 160.256C251.825 161.194 252.156 162.031 252.791 162.724L254.266 161.372C253.962 161.041 253.825 160.684 253.825 160.256H251.825ZM252.853 162.785C253.546 163.42 254.383 163.752 255.321 163.752V161.752C254.893 161.752 254.535 161.614 254.204 161.311L252.853 162.785ZM255.321 163.752H285.401V161.752H255.321V163.752ZM284.401 162.752V168H286.401V162.752H284.401ZM285.401 167H255.321V169H285.401V167ZM252.825 147.816H280.089V145.816H252.825V147.816ZM281.089 146.816V138.624H279.089V146.816H281.089ZM281.089 138.624C281.089 137.656 280.711 136.814 279.996 136.159L278.645 137.633C278.954 137.917 279.089 138.227 279.089 138.624H281.089ZM280.058 136.22C279.403 135.506 278.561 135.128 277.593 135.128V137.128C277.989 137.128 278.3 137.262 278.583 137.572L280.058 136.22ZM277.593 135.128H255.321V137.128H277.593V135.128ZM255.321 135.128C254.355 135.128 253.508 135.502 252.821 136.189L254.236 137.603C254.573 137.266 254.92 137.128 255.321 137.128V135.128ZM252.821 136.189C252.159 136.852 251.825 137.685 251.825 138.624H253.825C253.825 138.198 253.96 137.879 254.236 137.603L252.821 136.189ZM251.825 138.624V146.816H253.825V138.624H251.825ZM292.273 168H291.273V169H292.273V168ZM292.273 121.92V120.92H291.273V121.92H292.273ZM297.521 121.92H298.521V120.92H297.521V121.92ZM297.521 142.336H296.521V143.336H297.521V142.336ZM312.369 142.336V143.336H312.835L313.135 142.979L312.369 142.336ZM329.521 121.92V120.92H329.055L328.755 121.277L329.521 121.92ZM336.177 121.92H337.177V120.92H336.177V121.92ZM336.177 121.984L336.943 122.626L337.177 122.348V121.984H336.177ZM316.913 144.96L316.147 144.318L315.607 144.961L316.148 145.604L316.913 144.96ZM336.241 167.936H337.241V167.571L337.006 167.292L336.241 167.936ZM336.241 168V169H337.241V168H336.241ZM329.521 168L328.755 168.643L329.055 169H329.521V168ZM312.369 147.584L313.135 146.941L312.835 146.584H312.369V147.584ZM297.521 147.584V146.584H296.521V147.584H297.521ZM297.521 168V169H298.521V168H297.521ZM293.273 168V121.92H291.273V168H293.273ZM292.273 122.92H297.521V120.92H292.273V122.92ZM296.521 121.92V142.336H298.521V121.92H296.521ZM297.521 143.336H312.369V141.336H297.521V143.336ZM313.135 142.979L330.287 122.563L328.755 121.277L311.603 141.693L313.135 142.979ZM329.521 122.92H336.177V120.92H329.521V122.92ZM335.177 121.92V121.984H337.177V121.92H335.177ZM335.411 121.342L316.147 144.318L317.679 145.602L336.943 122.626L335.411 121.342ZM316.148 145.604L335.476 168.58L337.006 167.292L317.678 144.316L316.148 145.604ZM335.241 167.936V168H337.241V167.936H335.241ZM336.241 167H329.521V169H336.241V167ZM330.287 167.357L313.135 146.941L311.603 148.227L328.755 168.643L330.287 167.357ZM312.369 146.584H297.521V148.584H312.369V146.584ZM296.521 147.584V168H298.521V147.584H296.521ZM297.521 167H292.273V169H297.521V167ZM342.953 168H341.953V169H342.953V168ZM342.953 130.88V129.88H341.953V130.88H342.953ZM348.201 130.88H349.201V129.88H348.201V130.88ZM348.201 168V169H349.201V168H348.201ZM342.953 123.968H341.953V124.968H342.953V123.968ZM342.953 118.72V117.72H341.953V118.72H342.953ZM348.201 118.72H349.201V117.72H348.201V118.72ZM348.201 123.968V124.968H349.201V123.968H348.201ZM343.953 168V130.88H341.953V168H343.953ZM342.953 131.88H348.201V129.88H342.953V131.88ZM347.201 130.88V168H349.201V130.88H347.201ZM348.201 167H342.953V169H348.201V167ZM343.953 123.968V118.72H341.953V123.968H343.953ZM342.953 119.72H348.201V117.72H342.953V119.72ZM347.201 118.72V123.968H349.201V118.72H347.201ZM348.201 122.968H342.953V124.968H348.201V122.968ZM355.456 168H354.456V169H355.456V168ZM355.456 130.88V129.88H354.456V130.88H355.456ZM390.976 133.184L390.259 133.881L390.269 133.891L390.279 133.901L390.976 133.184ZM393.28 168V169H394.28V168H393.28ZM388.032 168H387.032V169H388.032V168ZM387.264 136.896L386.527 137.572L386.556 137.604L386.588 137.633L387.264 136.896ZM361.472 136.896L362.148 137.633L362.164 137.618L362.179 137.603L361.472 136.896ZM360.704 168V169H361.704V168H360.704ZM356.456 168V130.88H354.456V168H356.456ZM355.456 131.88H385.536V129.88H355.456V131.88ZM385.536 131.88C387.398 131.88 388.953 132.538 390.259 133.881L391.693 132.487C390.012 130.758 387.941 129.88 385.536 129.88V131.88ZM390.279 133.901C391.622 135.207 392.28 136.762 392.28 138.624H394.28C394.28 136.219 393.402 134.148 391.673 132.467L390.279 133.901ZM392.28 138.624V168H394.28V138.624H392.28ZM393.28 167H388.032V169H393.28V167ZM389.032 168V138.624H387.032V168H389.032ZM389.032 138.624C389.032 137.656 388.654 136.814 387.94 136.159L386.588 137.633C386.898 137.917 387.032 138.227 387.032 138.624H389.032ZM388.001 136.22C387.346 135.506 386.504 135.128 385.536 135.128V137.128C385.933 137.128 386.243 137.262 386.527 137.572L388.001 136.22ZM385.536 135.128H363.264V137.128H385.536V135.128ZM363.264 135.128C362.299 135.128 361.452 135.502 360.765 136.189L362.179 137.603C362.516 137.266 362.864 137.128 363.264 137.128V135.128ZM360.796 136.159C360.082 136.814 359.704 137.656 359.704 138.624H361.704C361.704 138.227 361.838 137.917 362.148 137.633L360.796 136.159ZM359.704 138.624V168H361.704V138.624H359.704ZM360.704 167H355.456V169H360.704V167ZM406.035 182.656H405.035V183.656H406.035V182.656ZM406.035 177.344V176.344H405.035V177.344H406.035ZM430.931 176.576L430.255 175.839L430.223 175.868L430.193 175.9L430.931 176.576ZM431.699 168H432.699V167H431.699V168ZM401.427 165.76L400.71 166.457L400.719 166.467L400.729 166.477L401.427 165.76ZM401.427 133.184L400.719 132.477L401.427 133.184ZM434.707 133.184L433.989 133.881L433.999 133.891L434.707 133.184ZM434.707 180.352L433.999 179.645L433.99 179.655L434.707 180.352ZM430.931 162.048L430.223 161.341L430.931 162.048ZM430.931 136.896L430.193 137.572L430.223 137.604L430.255 137.633L430.931 136.896ZM405.139 136.896L404.431 136.189L405.139 136.896ZM405.139 162.048L404.401 162.724L404.431 162.756L404.463 162.785L405.139 162.048ZM407.035 182.656V177.344H405.035V182.656H407.035ZM406.035 178.344H429.203V176.344H406.035V178.344ZM429.203 178.344C430.171 178.344 431.013 177.966 431.668 177.252L430.193 175.9C429.91 176.21 429.599 176.344 429.203 176.344V178.344ZM431.606 177.313C432.321 176.658 432.699 175.816 432.699 174.848H430.699C430.699 175.245 430.564 175.555 430.255 175.839L431.606 177.313ZM432.699 174.848V168H430.699V174.848H432.699ZM431.699 167H406.931V169H431.699V167ZM406.931 167C405.059 167 403.474 166.356 402.124 165.043L400.729 166.477C402.451 168.151 404.536 169 406.931 169V167ZM402.143 165.063C400.831 163.713 400.187 162.128 400.187 160.256H398.187C398.187 162.651 399.036 164.735 400.71 166.457L402.143 165.063ZM400.187 160.256V138.624H398.187V160.256H400.187ZM400.187 138.624C400.187 136.753 400.83 135.195 402.134 133.891L400.719 132.477C399.036 134.16 398.187 136.228 398.187 138.624H400.187ZM402.134 133.891C403.486 132.539 405.068 131.88 406.931 131.88V129.88C404.527 129.88 402.439 130.757 400.719 132.477L402.134 133.891ZM406.931 131.88H429.203V129.88H406.931V131.88ZM429.203 131.88C431.113 131.88 432.688 132.542 433.99 133.881L435.423 132.487C433.739 130.754 431.644 129.88 429.203 129.88V131.88ZM433.999 133.891C435.303 135.195 435.947 136.753 435.947 138.624H437.947C437.947 136.228 437.097 134.16 435.414 132.477L433.999 133.891ZM435.947 138.624V174.848H437.947V138.624H435.947ZM435.947 174.848C435.947 176.768 435.299 178.345 433.999 179.645L435.414 181.059C437.101 179.372 437.947 177.28 437.947 174.848H435.947ZM433.99 179.655C432.688 180.994 431.113 181.656 429.203 181.656V183.656C431.644 183.656 433.739 182.782 435.423 181.049L433.99 179.655ZM429.203 181.656H406.035V183.656H429.203V181.656ZM406.931 163.752H429.203V161.752H406.931V163.752ZM429.203 163.752C430.142 163.752 430.975 163.418 431.638 162.755L430.223 161.341C429.947 161.617 429.628 161.752 429.203 161.752V163.752ZM431.638 162.755C432.325 162.068 432.699 161.221 432.699 160.256H430.699C430.699 160.656 430.56 161.004 430.223 161.341L431.638 162.755ZM432.699 160.256V138.624H430.699V160.256H432.699ZM432.699 138.624C432.699 137.656 432.321 136.814 431.606 136.159L430.255 137.633C430.564 137.917 430.699 138.227 430.699 138.624H432.699ZM431.668 136.22C431.013 135.506 430.171 135.128 429.203 135.128V137.128C429.599 137.128 429.91 137.262 430.193 137.572L431.668 136.22ZM429.203 135.128H406.931V137.128H429.203V135.128ZM406.931 135.128C405.965 135.128 405.118 135.502 404.431 136.189L405.846 137.603C406.183 137.266 406.53 137.128 406.931 137.128V135.128ZM404.431 136.189C403.769 136.852 403.435 137.685 403.435 138.624H405.435C405.435 138.198 405.57 137.879 405.846 137.603L404.431 136.189ZM403.435 138.624V160.256H405.435V138.624H403.435ZM403.435 160.256C403.435 161.194 403.766 162.031 404.401 162.724L405.876 161.372C405.572 161.041 405.435 160.684 405.435 160.256H403.435ZM404.463 162.785C405.156 163.42 405.993 163.752 406.931 163.752V161.752C406.503 161.752 406.145 161.614 405.814 161.311L404.463 162.785Z" fill="#E95353"/>
<path d="M7.10565 160.733V167.802H22.561H28.9254H60.6292H70.624H76.0425V160.733H7.10565Z" fill="#8C5549"/>
<g opacity="0.15">
<path opacity="0.15" d="M7.10565 160.733V167.802H8.67794H9.32548H12.5509H13.5674H14.1186V160.733H7.10565Z" fill="#202020"/>
</g>
<path d="M86.3866 82.3227H74.5954V115.728H86.3866V82.3227Z" fill="#FEE298"/>
<path d="M109.877 82.3227H98.0859V126.265H109.877V82.3227Z" fill="#FEE298"/>
<path d="M133.46 82.3227H121.668V115.728H133.46V82.3227Z" fill="#FEE298"/>
<path d="M116.821 121.858V115.739H121.668V73.1421H109.877V126.265H112.482C114.879 126.265 116.821 124.292 116.821 121.858Z" fill="#F7BE63"/>
<path d="M91.505 115.739V121.858C91.505 124.292 93.4482 126.264 95.8452 126.264H98.1785V73.1421H86.3873V115.739H91.505Z" fill="#F7BE63"/>
<path d="M77.6225 138.374C75.0003 124.364 55.3073 120.282 41.3852 120.282C27.5059 120.282 7.26407 124.3 4.59658 138.245C4.59658 138.245 3.35929 147.79 8.01837 147.79H75.4343C76.7261 147.513 78.44 143.662 77.6225 138.374Z" fill="#EFAC52"/>
<g opacity="0.15">
<path opacity="0.15" d="M11.6791 138.245C14.1272 125.451 31.3659 121.014 44.9137 120.369C43.7075 120.31 42.5266 120.282 41.3852 120.282C27.5059 120.282 7.26407 124.3 4.59658 138.245C4.59658 138.245 3.35929 147.79 8.01837 147.79H15.1012C10.4418 147.79 11.6791 138.245 11.6791 138.245Z" fill="#202020"/>
</g>
<path d="M28.9253 167.802H9.93208H9.70785C6.67458 167.802 4.21606 170.06 4.21606 172.846V172.896C4.21606 175.683 6.67484 177.942 9.70785 177.942H39.1493L28.9253 167.802Z" fill="#D33D3D"/>
<path d="M73.2147 167.802H60.6291L50.4055 177.942H73.2149C76.2482 177.942 78.7062 175.683 78.7062 172.896V172.846C78.7062 170.06 76.2479 167.802 73.2147 167.802Z" fill="#D33D3D"/>
<g opacity="0.15">
<path opacity="0.15" d="M11.2858 172.896V172.846C11.2858 170.06 13.7445 167.801 16.7773 167.801H9.93208H9.70785C6.67458 167.801 4.21606 170.06 4.21606 172.846V172.896C4.21606 175.682 6.67484 177.942 9.70785 177.942H16.7773C13.7443 177.942 11.2858 175.682 11.2858 172.896Z" fill="#202020"/>
</g>
<path d="M44.777 183.524L60.6291 167.802H28.9254L44.777 183.524Z" fill="#FCAF29"/>
<path d="M78.0373 178.028H50.3178L44.777 183.524L39.2363 178.028H38.8614H4.15857V179.785C4.15857 179.843 4.16258 179.9 4.16472 179.958C4.16232 180.016 4.15857 180.073 4.15857 180.131V181.706V182.106C4.15857 182.165 4.16258 182.221 4.16472 182.28C4.16232 182.338 4.15857 182.395 4.15857 182.453V182.553V184.876C4.15857 187.075 5.39933 188.858 6.92935 188.858H17.176H23.7954H75.2665C76.7965 188.858 78.0373 187.075 78.0373 184.876V182.553V182.453C78.0373 182.394 78.0322 182.338 78.0311 182.28C78.0322 182.221 78.0373 182.165 78.0373 182.106V181.706V180.131C78.0373 180.073 78.0322 180.016 78.0311 179.958C78.0322 179.9 78.0373 179.843 78.0373 179.785V178.028Z" fill="#EFAC52"/>
<g opacity="0.15">
<path opacity="0.15" d="M11.1777 184.876V182.553V182.453C11.1777 182.394 11.1817 182.338 11.1838 182.28C11.1814 182.221 11.1777 182.165 11.1777 182.106V181.706V180.131C11.1777 180.073 11.1817 180.016 11.1838 179.958C11.1814 179.9 11.1777 179.843 11.1777 179.785V178.028H4.15857V179.785C4.15857 179.843 4.16258 179.9 4.16472 179.958C4.16232 180.016 4.15857 180.073 4.15857 180.131V181.706V182.106C4.15857 182.165 4.16258 182.221 4.16472 182.28C4.16232 182.338 4.15857 182.395 4.15857 182.453V182.553V184.876C4.15857 187.075 5.39933 188.858 6.92935 188.858H13.9482C12.4182 188.858 11.1777 187.075 11.1777 184.876Z" fill="#202020"/>
</g>
<path d="M136.14 127.497L136.842 115.739H116.821V121.858C116.821 124.292 114.879 126.265 112.481 126.265H95.8452C93.4485 126.265 91.5051 124.292 91.5051 121.858V115.739H71.4851L72.2844 129.147C74.9944 131.586 76.9199 134.624 77.6223 138.374C78.4397 143.662 76.7259 147.514 75.4338 147.79H73.3956L74.1676 160.733H76.0422V167.801H74.5885L74.5986 167.969C76.96 168.534 78.706 170.5 78.706 172.846V172.896C78.706 175.048 77.237 176.88 75.1731 177.605L75.1986 178.028H78.037V179.785C78.037 179.843 78.032 179.9 78.0309 179.958C78.032 180.016 78.037 180.073 78.037 180.131V181.706V182.106C78.037 182.165 78.032 182.221 78.0309 182.28C78.032 182.337 78.037 182.394 78.037 182.452V182.553V184.876C78.037 186.356 77.4738 187.644 76.6397 188.331H132.514L135.704 134.813" fill="#E95353"/>
<g opacity="0.15">
<path opacity="0.15" d="M72.2881 129.269C72.3207 129.816 72.5696 130.329 72.9814 130.7C75.5012 132.968 77.0721 135.667 77.652 138.722C78.2112 142.386 77.3563 144.863 76.8639 145.679H75.5547C74.9607 145.679 74.3926 145.918 73.9848 146.341C73.7611 146.573 73.5987 146.85 73.5013 147.148L77.8353 148.339C84.8372 139.14 80.4958 131.294 79.8897 130.295C79.6877 129.99 79.5657 129.638 79.5437 129.27L78.7445 115.862C78.71 115.281 78.9214 114.713 79.3291 114.29C79.7372 113.867 80.305 113.627 80.8993 113.627H81.8519V83.1717H74.5967V113.627H73.6439C73.0496 113.627 72.4815 113.867 72.0738 114.29C71.666 114.713 71.4546 115.281 71.4888 115.862L72.2881 129.269Z" fill="#202020"/>
</g>
<path d="M23.909 123.869C22.7166 123.869 21.7504 124.814 21.7504 125.98V126.299C21.7504 127.465 22.7166 128.41 23.909 128.41C25.1013 128.41 26.0675 127.465 26.0675 126.299V125.98C26.0675 124.814 25.1013 123.869 23.909 123.869Z" fill="#202020"/>
<path d="M34.393 123.869C33.2006 123.869 32.2344 124.814 32.2344 125.98V126.299C32.2344 127.465 33.2006 128.41 34.393 128.41C35.5853 128.41 36.5515 127.465 36.5515 126.299V125.98C36.5515 124.814 35.5853 123.869 34.393 123.869Z" fill="#202020"/>
<path d="M44.8764 123.869C43.6841 123.869 42.7179 124.814 42.7179 125.98V126.299C42.7179 127.465 43.6841 128.41 44.8764 128.41C46.0688 128.41 47.035 127.465 47.035 126.299V125.98C47.035 124.814 46.0688 123.869 44.8764 123.869Z" fill="#202020"/>
<path d="M55.3604 123.869C54.1681 123.869 53.2019 124.814 53.2019 125.98V126.299C53.2019 127.465 54.1681 128.41 55.3604 128.41C56.5528 128.41 57.519 127.465 57.519 126.299V125.98C57.519 124.814 56.5528 123.869 55.3604 123.869Z" fill="#202020"/>
<path d="M29.1514 131.678C27.959 131.678 26.9928 132.623 26.9928 133.789V134.108C26.9928 135.274 27.959 136.219 29.1514 136.219C30.3437 136.219 31.3099 135.274 31.3099 134.108V133.789C31.3099 132.623 30.3437 131.678 29.1514 131.678Z" fill="#202020"/>
<path d="M39.6348 131.678C38.4425 131.678 37.4763 132.623 37.4763 133.789V134.108C37.4763 135.274 38.4425 136.219 39.6348 136.219C40.8271 136.219 41.7934 135.274 41.7934 134.108V133.789C41.7934 132.623 40.8269 131.678 39.6348 131.678Z" fill="#202020"/>
<path d="M50.1188 131.678C48.9265 131.678 47.9603 132.623 47.9603 133.789V134.108C47.9603 135.274 48.9265 136.219 50.1188 136.219C51.3112 136.219 52.2774 135.274 52.2774 134.108V133.789C52.2774 132.623 51.3109 131.678 50.1188 131.678Z" fill="#202020"/>
<path d="M136.412 111.259C136.005 110.836 135.437 110.596 134.842 110.596H133.617V79.2914C133.617 78.1251 132.651 77.1801 131.459 77.1801H121.826V70.1113C121.826 68.9451 120.86 68 119.668 68H107.877C106.685 68 105.719 68.9451 105.719 70.1113V77.1801H98.337V70.1113C98.337 68.9451 97.3708 68 96.1785 68H84.3874C83.195 68 82.2288 68.9451 82.2288 70.1113V77.1801H72.5962C71.4039 77.1801 70.4377 78.1251 70.4377 79.2914V110.596H69.4848C68.8908 110.596 68.3227 110.836 67.9149 111.259C67.5072 111.682 67.2955 112.25 67.33 112.831L67.8593 121.706C66.2651 120.734 64.4948 119.858 62.5516 119.087C53.8895 115.653 44.3191 115.14 39.3849 115.14C34.4275 115.14 24.7968 115.647 15.9948 119.039C7.16576 122.442 1.7992 127.901 0.47415 134.826C0.46639 134.867 0.4597 134.908 0.45462 134.949C0.29915 136.149 -0.34197 142.285 2.32044 145.239C3.28158 146.307 4.56008 146.871 6.01758 146.871H69.3593L69.4784 148.867H2.95166C1.75933 148.867 0.7931 149.812 0.7931 150.978C0.7931 152.144 1.75933 153.089 2.95166 153.089H69.7302L69.8795 155.592H5.10567C3.91334 155.592 2.94711 156.537 2.94711 157.703V164.22C1.18778 165.532 0.05726 167.553 0.05726 169.816V169.866C0.05726 171.085 0.38558 172.234 0.96328 173.24C0.38291 173.618 0 174.264 0 174.997V176.755C0 176.813 0.00160997 176.87 0.00427997 176.927C0.00160997 176.985 0 177.042 0 177.1V179.075C0 179.134 0.00160997 179.191 0.00427997 179.249C0.00160997 179.306 0 179.364 0 179.422V181.845C0 185.262 2.16525 187.939 4.92933 187.939H15.176C16.3683 187.939 17.3345 186.994 17.3345 185.827C17.3345 184.661 16.3683 183.716 15.176 183.716H4.97964C4.76638 183.589 4.31711 182.929 4.31711 181.845L4.31685 179.437L4.32166 179.33C4.32407 179.277 4.32407 179.224 4.32193 179.171L4.31685 177.115L4.31711 177.108H36.3332L41.2403 181.975C41.6459 182.378 42.1996 182.604 42.7773 182.604C43.355 182.604 43.9086 182.377 44.3142 181.975L49.2214 177.108H73.1991H73.8793L73.8787 179.071C73.8763 179.117 73.8745 179.163 73.8734 179.21C73.8731 179.237 73.8731 179.263 73.8734 179.29C73.8745 179.335 73.8766 179.381 73.8795 179.421V181.845C73.8795 181.97 73.8723 182.088 73.8613 182.201C73.8565 182.251 73.8488 182.298 73.8418 182.346C73.8335 182.406 73.8255 182.466 73.8145 182.522C73.8038 182.577 73.7912 182.63 73.7781 182.682C73.7674 182.725 73.7567 182.768 73.745 182.808C73.7292 182.862 73.712 182.914 73.6941 182.965C73.6829 182.996 73.6716 183.026 73.6599 183.055C73.6382 183.109 73.6157 183.162 73.5922 183.211C73.5847 183.226 73.5769 183.241 73.5694 183.256C73.4709 183.447 73.3596 183.595 73.2507 183.684C73.2422 183.691 73.2355 183.7 73.2272 183.707C73.224 183.709 73.22 183.714 73.2168 183.716H21.7954C20.603 183.716 19.6368 184.661 19.6368 185.827C19.6368 186.993 20.603 187.938 21.7954 187.938H73.2665C73.9949 187.938 74.6799 187.748 75.2966 187.412H130.513C131.657 187.412 132.602 186.539 132.668 185.423L135.859 131.905C135.928 130.741 135.02 129.742 133.829 129.675C132.634 129.603 131.618 130.495 131.549 131.66L128.477 183.189H78.0784C78.0795 183.182 78.08 183.175 78.0813 183.168C78.1124 182.988 78.1354 182.805 78.1538 182.62C78.1576 182.583 78.1637 182.548 78.1667 182.511C78.1851 182.293 78.1958 182.071 78.1958 181.845V179.422C78.1958 179.367 78.1942 179.312 78.1913 179.251C78.194 179.193 78.1958 179.135 78.1958 179.076V177.101C78.1958 177.046 78.1942 176.991 78.1913 176.929C78.194 176.872 78.1958 176.813 78.1958 176.755V174.998C78.1958 174.929 78.1918 174.861 78.1851 174.794C78.1827 174.772 78.179 174.75 78.1763 174.728C78.1707 174.683 78.1643 174.639 78.1557 174.596C78.1506 174.57 78.1442 174.545 78.1381 174.519C78.129 174.48 78.1191 174.441 78.1075 174.403C78.0998 174.377 78.091 174.351 78.0821 174.326C78.0698 174.289 78.0562 174.253 78.0417 174.218C78.0313 174.192 78.0206 174.167 78.0096 174.142C77.9936 174.107 77.9764 174.073 77.9585 174.038C77.9465 174.015 77.9344 173.992 77.9213 173.969C77.9007 173.933 77.8785 173.898 77.8558 173.863C77.8434 173.844 77.8317 173.825 77.8183 173.806C77.7875 173.762 77.7543 173.72 77.7204 173.678C77.7139 173.67 77.7083 173.662 77.7016 173.654C78.3374 172.704 78.7406 171.607 78.8391 170.429C78.8421 170.397 78.845 170.364 78.8471 170.332C78.8578 170.178 78.8651 170.023 78.8651 169.867V169.817C78.8651 169.688 78.861 169.559 78.8536 169.432C78.8511 169.393 78.8469 169.354 78.8442 169.315C78.8375 169.227 78.8306 169.139 78.8209 169.051C78.8158 169.006 78.8086 168.961 78.8025 168.916C78.7915 168.835 78.7805 168.755 78.7669 168.676C78.7586 168.628 78.7487 168.58 78.7396 168.533C78.7249 168.457 78.7096 168.382 78.6927 168.308C78.6812 168.258 78.6684 168.208 78.6556 168.158C78.6376 168.088 78.6189 168.017 78.5988 167.948C78.5836 167.895 78.5675 167.843 78.5509 167.791C78.5306 167.727 78.5092 167.662 78.4867 167.598C78.4672 167.543 78.4474 167.487 78.4262 167.432C78.4046 167.375 78.3818 167.317 78.3585 167.261C78.3339 167.201 78.309 167.141 78.2825 167.081C78.2617 167.034 78.2392 166.987 78.217 166.94C78.1857 166.873 78.1538 166.806 78.1204 166.74C78.1038 166.708 78.0861 166.676 78.0693 166.644C78.0275 166.565 77.9855 166.487 77.9406 166.409C77.94 166.409 77.9395 166.408 77.939 166.407C77.5898 165.806 77.1499 165.255 76.634 164.771C76.6268 164.765 76.6198 164.758 76.6131 164.752C76.5361 164.68 76.4574 164.61 76.3771 164.541C76.3619 164.528 76.3466 164.515 76.3314 164.502C76.288 164.466 76.246 164.428 76.2013 164.392V157.704C76.2013 157.633 76.1976 157.563 76.1903 157.493C76.1879 157.47 76.1831 157.447 76.1799 157.423C76.1738 157.378 76.1679 157.332 76.1588 157.288C76.1534 157.261 76.1451 157.234 76.1387 157.207C76.1288 157.167 76.1197 157.128 76.1079 157.089C76.0994 157.061 76.0884 157.034 76.0785 157.007C76.0657 156.97 76.0531 156.934 76.0381 156.899C76.0263 156.871 76.0124 156.844 75.9996 156.817C75.9838 156.784 75.9683 156.75 75.9509 156.718C75.9361 156.691 75.9201 156.665 75.9043 156.638C75.8856 156.607 75.8671 156.576 75.847 156.546C75.8297 156.521 75.8115 156.496 75.793 156.471C75.7716 156.442 75.7504 156.414 75.7277 156.386C75.7079 156.362 75.687 156.338 75.6664 156.315C75.6429 156.289 75.6191 156.262 75.5939 156.237C75.572 156.215 75.549 156.193 75.5262 156.172C75.5 156.148 75.4738 156.125 75.4465 156.102C75.4224 156.081 75.3978 156.062 75.3729 156.043C75.3443 156.021 75.3159 156 75.2862 155.979C75.2602 155.961 75.234 155.944 75.2073 155.927C75.1768 155.908 75.146 155.89 75.1147 155.872C75.0871 155.857 75.059 155.842 75.0307 155.827C74.9986 155.811 74.9656 155.796 74.9325 155.781C74.9033 155.769 74.8741 155.756 74.8444 155.744C74.8102 155.731 74.7754 155.719 74.7401 155.707C74.7101 155.697 74.6799 155.687 74.6494 155.678C74.613 155.668 74.576 155.659 74.5389 155.65C74.5081 155.643 74.4776 155.636 74.4463 155.63C74.408 155.623 74.3689 155.618 74.3296 155.613C74.2986 155.609 74.2675 155.604 74.2357 155.602C74.225 155.601 74.2151 155.598 74.2044 155.598L74.0548 153.089H76.1965C77.3888 153.089 78.3551 152.144 78.3551 150.978C78.3551 149.812 77.3888 148.867 76.1965 148.867H73.803L73.6834 146.857C73.7548 146.849 73.8255 146.837 73.8959 146.822C76.878 146.184 78.6465 140.783 77.757 135.028C77.7535 135.006 77.7501 134.985 77.7458 134.964C77.704 134.74 77.6577 134.518 77.608 134.298C77.581 134.178 77.5499 134.06 77.5205 133.941C77.4967 133.845 77.4745 133.749 77.449 133.653C77.4041 133.484 77.3549 133.316 77.3051 133.148C77.2933 133.108 77.2826 133.068 77.2706 133.029C76.3769 130.095 74.743 127.459 72.3902 125.165L71.7734 114.819H84.3876H87.3465V118.827C87.3465 119.052 87.358 119.274 87.3802 119.493C87.7136 122.775 90.4857 125.345 93.8452 125.345H96.0864H96.1785H107.877H110.481C113.841 125.345 116.613 122.775 116.946 119.493C116.969 119.274 116.98 119.052 116.98 118.827V114.819H119.668H132.554L131.985 124.344C131.916 125.508 132.824 126.507 134.015 126.574C135.202 126.642 136.226 125.754 136.295 124.589L136.997 112.831C137.031 112.25 136.82 111.682 136.412 111.259ZM71.2147 166.882C71.5075 166.882 71.7897 166.919 72.0605 166.981C72.0694 166.984 72.0774 166.988 72.0865 166.99C72.7201 167.141 73.2705 167.449 73.689 167.857C73.689 167.857 73.6893 167.857 73.6896 167.858C73.7484 167.915 73.8049 167.975 73.8584 168.036C73.86 168.039 73.8619 168.041 73.8635 168.043C74.0658 168.276 74.2269 168.536 74.3427 168.813C74.3529 168.838 74.3639 168.862 74.3732 168.887C74.392 168.936 74.408 168.985 74.4235 169.035C74.4356 169.074 74.4473 169.113 74.4578 169.152C74.4693 169.195 74.48 169.238 74.4891 169.282C74.5001 169.334 74.5086 169.386 74.5164 169.439C74.5215 169.474 74.5276 169.508 74.5314 169.543C74.5407 169.633 74.5469 169.724 74.5469 169.816V169.866C74.5469 169.957 74.5405 170.047 74.5314 170.136C74.5287 170.162 74.5249 170.187 74.5215 170.212C74.5124 170.28 74.5009 170.347 74.4864 170.414C74.4819 170.436 74.4776 170.458 74.472 170.48C74.4291 170.656 74.3684 170.827 74.2913 170.991C74.2847 171.005 74.2777 171.018 74.271 171.032C74.2359 171.103 74.198 171.172 74.1568 171.24C74.1493 171.252 74.1423 171.264 74.1348 171.277C74.0382 171.432 73.9256 171.578 73.7998 171.714C73.7829 171.732 73.765 171.749 73.7474 171.767C73.7048 171.811 73.6604 171.854 73.6146 171.895C73.5855 171.922 73.5563 171.948 73.5261 171.974C73.4948 172 73.4618 172.026 73.4295 172.051C73.1442 172.274 72.8132 172.457 72.4429 172.587C72.4343 172.591 72.4271 172.595 72.4186 172.598C72.0445 172.727 71.6391 172.8 71.2142 172.8H53.565L59.5314 166.882H71.2147ZM46.7824 173.513C46.7818 173.514 46.7813 173.514 46.781 173.514L45.2724 175.011L37.0768 166.881H53.4692L46.7824 173.513ZM26.0223 166.882L31.9888 172.8H7.7076C5.86934 172.8 4.37438 171.484 4.37438 169.865V169.815C4.37438 168.198 5.86961 166.882 7.7076 166.882H26.0223ZM7.26423 162.659V159.814H71.8837V162.659H71.2147H58.6292H26.9254H7.7076H7.26423ZM129.3 81.4024V110.586H121.826V81.4024H129.3ZM105.719 81.4024V121.122H98.337V81.4024H105.719ZM74.7551 81.4024H82.2291V110.586H74.7551V81.4024ZM5.56028 142.448C4.54696 141.326 4.46642 137.687 4.72999 135.54C7.07424 123.602 24.8516 119.363 39.3849 119.363C53.4721 119.363 70.6595 123.508 73.3744 135.131C73.4174 135.317 73.4573 135.503 73.4929 135.691C73.9183 138.48 73.5245 140.579 73.0953 141.783C72.9607 142.161 72.8223 142.453 72.7051 142.648H71.3959H6.01784C5.80298 142.648 5.70023 142.603 5.56028 142.448ZM91.6636 118.827V112.708C91.6636 111.542 90.6974 110.597 89.5051 110.597H86.5462V79.2914V72.2226H94.0202V78.6818C93.9605 78.875 93.9281 79.0794 93.9281 79.2914V121.123H93.8455C92.6424 121.122 91.6636 120.093 91.6636 118.827ZM114.821 110.596C113.629 110.596 112.663 111.541 112.663 112.708V118.827C112.663 120.093 111.684 121.122 110.481 121.122H110.036V79.2914V72.2226H117.509V79.2914V110.596H114.821Z" fill="#202020"/>
<defs>
<filter id="filter0_i" x="266.972" y="172.14" width="134.967" height="21.982" filterUnits="userSpaceOnUse" color-interpolation-filters="sRGB">
<feFlood flood-opacity="0" result="BackgroundImageFix"/>
<feBlend mode="normal" in="SourceGraphic" in2="BackgroundImageFix" result="shape"/>
<feColorMatrix in="SourceAlpha" type="matrix" values="0 0 0 0 0 0 0 0 0 0 0 0 0 0 0 0 0 0 127 0" result="hardAlpha"/>
<feOffset dy="4"/>
<feGaussianBlur stdDeviation="2"/>
<feComposite in2="hardAlpha" operator="arithmetic" k2="-1" k3="1"/>
<feColorMatrix type="matrix" values="0 0 0 0 0 0 0 0 0 0 0 0 0 0 0 0 0 0 0.25 0"/>
<feBlend mode="normal" in2="shape" result="effect1_innerShadow"/>
</filter>
<filter id="filter1_i" x="154.28" y="118.72" width="282.667" height="69.936" filterUnits="userSpaceOnUse" color-interpolation-filters="sRGB">
<feFlood flood-opacity="0" result="BackgroundImageFix"/>
<feBlend mode="normal" in="SourceGraphic" in2="BackgroundImageFix" result="shape"/>
<feColorMatrix in="SourceAlpha" type="matrix" values="0 0 0 0 0 0 0 0 0 0 0 0 0 0 0 0 0 0 127 0" result="hardAlpha"/>
<feOffset dy="6"/>
<feGaussianBlur stdDeviation="3"/>
<feComposite in2="hardAlpha" operator="arithmetic" k2="-1" k3="1"/>
<feColorMatrix type="matrix" values="0 0 0 0 0 0 0 0 0 0 0 0 0 0 0 0 0 0 0.25 0"/>
<feBlend mode="normal" in2="shape" result="effect1_innerShadow"/>
</filter>
</defs>
</svg>
